<svg xmlns="http://www.w3.org/2000/svg" viewBox="0 0 500 500"><g id="freepik--Shadows--inject-99"><ellipse id="freepik--Shadow--inject-99" cx="131.64" cy="433.26" rx="77.64" ry="44.82" style="fill:#e0e0e0"></ellipse><polygon id="freepik--shadow--inject-99" points="327.38 464.66 197.1 389.44 322.73 316.9 453.02 392.12 327.38 464.66" style="fill:#e0e0e0"></polygon></g><g id="freepik--Poster--inject-99"><g id="freepik--poster--inject-99"><g id="freepik--poster--inject-99"><polygon points="420.22 140.65 476.81 173.38 476.81 271.93 420.22 239.2 420.22 140.65" style="fill:#f0f0f0"></polygon><path d="M474.92,185.26c0-5-4.71-13.55-6.64-14.66L418.8,142v98l56.12,32.46Z" style="fill:#37474f"></path><path d="M418.56,141.57v98.55l56.6,32.73V185.26c0-5.21-4.84-13.75-6.77-14.86l-49.83-28.83Z" style="fill:#455a64"></path><path d="M468.39,170.4c3.12,2.52.81,8.88.81,8.88s6-.16,6,6.37h0C475.16,176.61,472.09,172.53,468.39,170.4Z" style="fill:#37474f"></path></g><polygon points="428.54 140.09 430.15 144.15 415 152.9 413.38 148.84 428.54 140.09" style="fill:#A11818"></polygon><polygon points="428.54 140.09 430.15 144.15 415 152.9 413.38 148.84 428.54 140.09" style="fill:#fff;opacity:0.4"></polygon><polygon points="478.71 259.12 480.32 263.19 465.17 271.93 463.56 267.87 478.71 259.12" style="fill:#A11818"></polygon><polygon points="478.71 259.12 480.32 263.19 465.17 271.93 463.56 267.87 478.71 259.12" style="fill:#fff;opacity:0.4"></polygon><path d="M454.67,205.5l5.85,3.38v-4.75A1.66,1.66,0,0,0,460,203a11.85,11.85,0,0,0-4.79-2.77c-.31-.08-.53.15-.53.57Z" style="fill:#A11818"></path><path d="M438.28,196l-5.84-3.37v-4.75c0-.42.22-.65.52-.57a11.81,11.81,0,0,1,4.8,2.77,1.72,1.72,0,0,1,.52,1.18Z" style="fill:#A11818"></path><path d="M425,200.13c2-6.73,3.39-12,9.2-10.33s7.85,8.4,12.3,11,6.48-1.86,12.29,3.22,7.17,11.88,9.21,21,1.74,15.45-1.85,14.95c-2.93-.41-5.78-5.53-8.54-10-3.7-6-7.84-10.42-11.11-12.31a11.92,11.92,0,0,0-11.12-.52c-2.76,1.31-5.61,3.14-8.54.16C423.23,213.57,422.94,206.86,425,200.13Z" style="fill:#fafafa"></path><path d="M436.79,211.8c3.28-3.08,5.72-3.17,9.69-.88s6.4,5.2,9.68,12.07c3.47,7.25,4,10.37,7.23,15.3-2-1.95-3.91-5.33-5.8-8.41-3.7-6-7.84-10.42-11.11-12.31a11.92,11.92,0,0,0-11.12-.52c-1.89.9-3.82,2-5.79,1.71C432.79,217.56,433.32,215.06,436.79,211.8Z" style="fill:#ebebeb"></path><path d="M466.11,240.09c-2.77-.38-5.4-4.72-7.95-8.92l-.73-1.19c-3.48-5.68-7.61-10.26-11.05-12.25a11.73,11.73,0,0,0-10.94-.51l-.72.35c-2.59,1.27-5.26,2.59-8-.23-3.41-3.46-4.12-9.91-1.89-17.26l.2-.67c1.92-6.38,3.44-11.41,9.23-9.8,3.42,1,5.53,3.64,7.58,6.24a18.19,18.19,0,0,0,4.76,4.75,6.66,6.66,0,0,0,4.7.73c2.07-.23,4.21-.47,7.62,2.52,5.66,5,7.17,11.67,9.07,20.16l.2.91c1.69,7.52,1.7,12.66,0,14.47a2.18,2.18,0,0,1-1.67.73Zm-14.8-38.38a7.19,7.19,0,0,1-4.93-.78,18.5,18.5,0,0,1-4.86-4.85c-2-2.55-4.09-5.18-7.39-6.1-5.44-1.52-6.83,3.12-8.77,9.53l-.2.68c-2.19,7.21-1.52,13.53,1.79,16.89,2.59,2.62,5,1.42,7.6.15l.73-.35a12.12,12.12,0,0,1,11.29.53c3.49,2,7.67,6.64,11.18,12.38l.73,1.19c2.5,4.12,5.09,8.38,7.68,8.74a1.87,1.87,0,0,0,1.75-.58c1.56-1.7,1.52-6.85-.12-14.14l-.2-.91c-2-8.76-3.38-15.08-8.94-20-2.41-2.1-4.15-2.54-5.69-2.54A14.72,14.72,0,0,0,451.31,201.71Z" style="fill:#263238"></path><path d="M451.1,209c0,5.53,3.37,12,7.52,14.36s7.51-.15,7.51-5.68-3.36-12-7.51-14.36S451.1,203.42,451.1,209Z" style="fill:#fafafa"></path><path d="M461.61,224.41a6.23,6.23,0,0,1-3.09-.93c-4.19-2.42-7.61-8.93-7.61-14.52,0-3,1-5.25,2.7-6.24,1.42-.82,3.23-.68,5.1.39,4.2,2.43,7.61,8.94,7.61,14.53,0,3-1,5.25-2.69,6.24A4,4,0,0,1,461.61,224.41Zm-6-21.84a3.65,3.65,0,0,0-1.84.47c-1.59.92-2.5,3.08-2.5,5.92,0,5.47,3.33,11.84,7.42,14.2,1.75,1,3.43,1.15,4.73.4,1.59-.92,2.51-3.08,2.51-5.92,0-5.47-3.33-11.84-7.43-14.2A5.84,5.84,0,0,0,455.63,202.57Z" style="fill:#e0e0e0"></path><path d="M445.49,204.4l2,1.15c.24.14.45,0,.45-.34h0a1.1,1.1,0,0,0-.45-.86l-2-1.15c-.25-.14-.45,0-.45.34h0A1.07,1.07,0,0,0,445.49,204.4Z" style="fill:#e0e0e0"></path><path d="M447.82,210.1l2,1.15c.25.14.45,0,.45-.34h0a1.07,1.07,0,0,0-.45-.86l-2-1.15c-.25-.14-.45,0-.45.34h0A1.07,1.07,0,0,0,447.82,210.1Z" style="fill:#e0e0e0"></path><ellipse cx="446.48" cy="216.77" rx="2.8" ry="4.95" transform="translate(-49.23 192.12) rotate(-23.05)" style="fill:#fafafa"></ellipse><path d="M447.76,221.64a2.73,2.73,0,0,1-1.38-.41,7.92,7.92,0,0,1-3.31-6.32,3,3,0,0,1,1.2-2.76,2.22,2.22,0,0,1,2.3.17,7.91,7.91,0,0,1,3.31,6.31,3.06,3.06,0,0,1-1.2,2.77A1.83,1.83,0,0,1,447.76,221.64Zm-2.56-9.36a1.54,1.54,0,0,0-.74.19,2.71,2.71,0,0,0-1,2.44,7.55,7.55,0,0,0,3.13,6,1.91,1.91,0,0,0,1.92.17,2.71,2.71,0,0,0,1-2.45,7.52,7.52,0,0,0-3.13-6A2.39,2.39,0,0,0,445.2,212.28Z" style="fill:#e0e0e0"></path><ellipse cx="434.34" cy="199.28" rx="6.53" ry="11.54" transform="translate(-43.35 185.98) rotate(-23.05)" style="fill:#fafafa"></ellipse><path d="M437.32,210.39a6.31,6.31,0,0,1-3.08-.92c-4.19-2.43-7.61-8.94-7.61-14.53,0-3,1-5.25,2.69-6.24,1.43-.82,3.24-.68,5.11.4,4.2,2.42,7.61,8.93,7.61,14.52,0,3-1,5.25-2.69,6.24A4,4,0,0,1,437.32,210.39Zm-6-21.84a3.7,3.7,0,0,0-1.84.47c-1.59.92-2.5,3.08-2.5,5.92,0,5.47,3.33,11.84,7.42,14.2,1.75,1,3.43,1.15,4.73.4,1.59-.92,2.51-3.08,2.51-5.92,0-5.47-3.34-11.84-7.43-14.2A5.84,5.84,0,0,0,431.35,188.55Z" style="fill:#e0e0e0"></path><path d="M445.13,208.55l-2-1.14a1.09,1.09,0,0,1-.45-.86h0c0-.33.2-.49.45-.34l2,1.14a1.07,1.07,0,0,1,.45.86h0C445.58,208.54,445.38,208.69,445.13,208.55Z" style="fill:#e0e0e0"></path><path d="M444.39,215.57a5,5,0,0,0,2.09,4c1.15.66,2.08-.05,2.08-1.58a5,5,0,0,0-2.08-4C445.32,213.33,444.39,214,444.39,215.57Z" style="fill:#A11818"></path><path d="M444.39,215.57a5,5,0,0,0,2.09,4c1.15.66,2.08-.05,2.08-1.58a5,5,0,0,0-2.08-4C445.32,213.33,444.39,214,444.39,215.57Z" style="fill:#fff;opacity:0.6000000000000001"></path><path d="M444.4,215.79a3.94,3.94,0,0,0,2.08,2.72c1.49.68,2.11-1,1.66-2.44a5,5,0,0,1,.42,1.91c0,1.53-.93,2.24-2.08,1.58A5,5,0,0,1,444.4,215.79Z" style="fill:#A11818;opacity:0.30000000000000004"></path><path d="M445,215.54c.18.56.57.29,1.14.21s1.08.07.9-.49a1.56,1.56,0,0,0-1.42-1.07C445.08,214.27,444.84,215,445,215.54Z" style="fill:#fff;opacity:0.30000000000000004"></path><ellipse cx="458.62" cy="207.86" rx="1.81" ry="3.2" transform="translate(-44.77 196.17) rotate(-23.05)" style="fill:#A11818"></ellipse><ellipse cx="458.62" cy="207.86" rx="1.81" ry="3.2" transform="translate(-44.77 196.17) rotate(-23.05)" style="fill:#fff;opacity:0.5"></ellipse><path d="M456.54,206.87a4,4,0,0,0,2.08,2.73c1.49.67,2.11-1,1.66-2.45a5.07,5.07,0,0,1,.42,1.92c0,1.53-.93,2.24-2.08,1.57A5,5,0,0,1,456.54,206.87Z" style="fill:#A11818;opacity:0.30000000000000004"></path><path d="M457.16,206.63c.19.56.57.29,1.14.21s1.08.06.9-.5a1.58,1.58,0,0,0-1.42-1.07C457.22,205.35,457,206.07,457.16,206.63Z" style="fill:#fff;opacity:0.30000000000000004"></path><ellipse cx="462.7" cy="215.65" rx="1.81" ry="3.2" transform="translate(-47.5 198.39) rotate(-23.05)" style="fill:#A11818"></ellipse><ellipse cx="462.7" cy="215.65" rx="1.81" ry="3.2" transform="translate(-47.5 198.39) rotate(-23.05)" style="fill:#fff;opacity:0.5"></ellipse><path d="M460.62,214.66a3.93,3.93,0,0,0,2.08,2.73c1.49.68,2.11-1,1.66-2.44a5,5,0,0,1,.42,1.91c0,1.53-.93,2.24-2.08,1.58A5,5,0,0,1,460.62,214.66Z" style="fill:#A11818;opacity:0.30000000000000004"></path><path d="M461.24,214.42c.18.56.57.29,1.13.21s1.09.07.91-.49a1.56,1.56,0,0,0-1.42-1.07C461.3,213.15,461.06,213.86,461.24,214.42Z" style="fill:#fff;opacity:0.30000000000000004"></path><path d="M456.53,217.53a5,5,0,0,0,2.09,4c1.15.66,2.08,0,2.08-1.58a5,5,0,0,0-2.08-4C457.46,215.29,456.53,216,456.53,217.53Z" style="fill:#A11818"></path><path d="M456.53,217.53a5,5,0,0,0,2.09,4c1.15.66,2.08,0,2.08-1.58a5,5,0,0,0-2.08-4C457.46,215.29,456.53,216,456.53,217.53Z" style="fill:#fff;opacity:0.5"></path><path d="M456.54,217.75a4,4,0,0,0,2.08,2.73c1.49.67,2.11-1,1.66-2.45a5,5,0,0,1,.42,1.91c0,1.54-.93,2.24-2.08,1.58A5,5,0,0,1,456.54,217.75Z" style="fill:#A11818;opacity:0.30000000000000004"></path><path d="M457.16,217.5c.19.56.57.29,1.14.22s1.08.06.9-.5a1.56,1.56,0,0,0-1.42-1.07C457.22,216.23,457,216.94,457.16,217.5Z" style="fill:#fff;opacity:0.30000000000000004"></path><path d="M452.45,209.74a5,5,0,0,0,2.09,4c1.15.66,2.08,0,2.08-1.58a5,5,0,0,0-2.08-4C453.39,207.5,452.45,208.2,452.45,209.74Z" style="fill:#A11818"></path><path d="M452.45,209.74a5,5,0,0,0,2.09,4c1.15.66,2.08,0,2.08-1.58a5,5,0,0,0-2.08-4C453.39,207.5,452.45,208.2,452.45,209.74Z" style="fill:#fff;opacity:0.5"></path><path d="M452.46,210a4,4,0,0,0,2.08,2.72c1.5.68,2.12-1,1.66-2.44a4.81,4.81,0,0,1,.42,1.91c0,1.53-.93,2.24-2.08,1.58A5,5,0,0,1,452.46,210Z" style="fill:#A11818;opacity:0.30000000000000004"></path><path d="M453.08,209.71c.19.56.58.29,1.14.21s1.08.07.9-.49a1.55,1.55,0,0,0-1.41-1.07C453.14,208.44,452.9,209.15,453.08,209.71Z" style="fill:#fff;opacity:0.30000000000000004"></path><path d="M432.25,192.64a5,5,0,0,0,2.09,4c1.15.67,2.08,0,2.08-1.57a5,5,0,0,0-2.08-4C433.18,190.4,432.25,191.1,432.25,192.64Z" style="fill:#A11818"></path><path d="M432.25,192.64a5,5,0,0,0,2.09,4c1.15.67,2.08,0,2.08-1.57a5,5,0,0,0-2.08-4C433.18,190.4,432.25,191.1,432.25,192.64Z" style="fill:#fff;opacity:0.5"></path><path d="M432.26,192.85a3.93,3.93,0,0,0,2.08,2.73c1.49.67,2.11-1,1.66-2.45a5.07,5.07,0,0,1,.42,1.92c0,1.53-.93,2.24-2.08,1.57A5,5,0,0,1,432.26,192.85Z" style="fill:#A11818;opacity:0.30000000000000004"></path><path d="M432.88,192.61c.18.56.57.29,1.14.21s1.08.07.9-.49a1.56,1.56,0,0,0-1.42-1.07C432.94,191.33,432.7,192.05,432.88,192.61Z" style="fill:#fff;opacity:0.30000000000000004"></path><path d="M436.33,200.43a5,5,0,0,0,2.08,4c1.16.66,2.09,0,2.09-1.58a5,5,0,0,0-2.09-4C437.26,198.19,436.33,198.9,436.33,200.43Z" style="fill:#A11818"></path><path d="M436.33,200.43a5,5,0,0,0,2.08,4c1.16.66,2.09,0,2.09-1.58a5,5,0,0,0-2.09-4C437.26,198.19,436.33,198.9,436.33,200.43Z" style="fill:#fff;opacity:0.5"></path><path d="M436.34,200.65a4,4,0,0,0,2.07,2.72c1.5.68,2.12-1,1.67-2.44a5,5,0,0,1,.42,1.91c0,1.54-.93,2.24-2.09,1.58A5,5,0,0,1,436.34,200.65Z" style="fill:#A11818;opacity:0.30000000000000004"></path><path d="M437,200.4c.18.56.57.29,1.13.21s1.09.07.91-.49a1.57,1.57,0,0,0-1.42-1.07C437,199.13,436.78,199.84,437,200.4Z" style="fill:#fff;opacity:0.30000000000000004"></path><ellipse cx="434.34" cy="204.72" rx="1.81" ry="3.2" transform="translate(-45.48 186.41) rotate(-23.05)" style="fill:#A11818"></ellipse><ellipse cx="434.34" cy="204.72" rx="1.81" ry="3.2" transform="translate(-45.48 186.41) rotate(-23.05)" style="fill:#fff;opacity:0.5"></ellipse><path d="M432.26,203.73a4,4,0,0,0,2.08,2.73c1.49.67,2.11-1,1.66-2.45a5.07,5.07,0,0,1,.42,1.91c0,1.54-.93,2.24-2.08,1.58A5,5,0,0,1,432.26,203.73Z" style="fill:#A11818;opacity:0.30000000000000004"></path><path d="M432.88,203.48c.18.56.57.3,1.14.22s1.08.06.9-.5a1.56,1.56,0,0,0-1.42-1.07C432.94,202.21,432.7,202.92,432.88,203.48Z" style="fill:#fff;opacity:0.30000000000000004"></path><path d="M428.17,195.72a5,5,0,0,0,2.09,4c1.15.66,2.08,0,2.08-1.58a5,5,0,0,0-2.08-4C429.11,193.48,428.17,194.19,428.17,195.72Z" style="fill:#A11818"></path><path d="M428.17,195.72a5,5,0,0,0,2.09,4c1.15.66,2.08,0,2.08-1.58a5,5,0,0,0-2.08-4C429.11,193.48,428.17,194.19,428.17,195.72Z" style="fill:#fff;opacity:0.5"></path><path d="M428.18,195.94a3.94,3.94,0,0,0,2.08,2.72c1.49.68,2.11-1,1.66-2.44a5,5,0,0,1,.42,1.91c0,1.54-.93,2.24-2.08,1.58A5,5,0,0,1,428.18,195.94Z" style="fill:#A11818;opacity:0.30000000000000004"></path><path d="M428.8,195.69c.19.56.57.29,1.14.21s1.08.07.9-.49a1.55,1.55,0,0,0-1.41-1.07C428.86,194.42,428.62,195.13,428.8,195.69Z" style="fill:#fff;opacity:0.30000000000000004"></path><path d="M426.7,173.91v-1.73l-1.12-.65V169.8l-1.13-.65V164l1.13.65v-1.73l1.12.65v-1.73l5.63,3.24v1.74l-4.5-2.6v1.73l-1.13-.65v5.2l1.13.64v1.74l2.25,1.3v-3.47L429,170v-1.73l3.38,1.95v6.93Z" style="fill:#A11818"></path><path d="M433.45,177.81v-8.66l1.13.65v-1.74l1.12.65V167l3.38,2v1.73l1.12.65V173l1.13.65v8.66l-2.25-1.3v-3.46l-3.38-2v3.46Zm2.25-3.9,3.38,2v-3.47l-1.13-.65V170l-1.12-.65v1.73l-1.13-.65Z" style="fill:#A11818"></path><path d="M442.45,183V170.88l2.25,1.3v1.73l1.13.65v1.73l1.12.65v-1.73l1.13.65v-1.73l2.25,1.29v12.13l-2.25-1.3v-6.93l-1.13-.65v3.47l-1.12-.65V178l-1.13-.65v6.93Z" style="fill:#A11818"></path><path d="M451.45,188.2V176.07l7.88,4.55v1.73l-5.63-3.24v3.46l4.5,2.6v1.73l-4.5-2.6v3.47l5.63,3.24v1.73Z" style="fill:#A11818"></path><path d="M460.45,193.39V181.27l6.75,3.9v1.73l1.13.65v5.2l-2.25-1.3v1.73l1.12.65v1.73l1.13.65v1.73L465,196v-1.73l-1.12-.65v-1.73l-1.13-.65v3.46Zm2.25-3.89,2.25,1.3v-1.73l1.13.64v-3.46l-3.38-1.95Z" style="fill:#A11818"></path><g style="opacity:0.5"><path d="M426.7,173.91v-1.73l-1.12-.65V169.8l-1.13-.65V164l1.13.65v-1.73l1.12.65v-1.73l5.63,3.24v1.74l-4.5-2.6v1.73l-1.13-.65v5.2l1.13.64v1.74l2.25,1.3v-3.47L429,170v-1.73l3.38,1.95v6.93Z" style="fill:#fff"></path><path d="M433.45,177.81v-8.66l1.13.65v-1.74l1.12.65V167l3.38,2v1.73l1.12.65V173l1.13.65v8.66l-2.25-1.3v-3.46l-3.38-2v3.46Zm2.25-3.9,3.38,2v-3.47l-1.13-.65V170l-1.12-.65v1.73l-1.13-.65Z" style="fill:#fff"></path><path d="M442.45,183V170.88l2.25,1.3v1.73l1.13.65v1.73l1.12.65v-1.73l1.13.65v-1.73l2.25,1.29v12.13l-2.25-1.3v-6.93l-1.13-.65v3.47l-1.12-.65V178l-1.13-.65v6.93Z" style="fill:#fff"></path><path d="M451.45,188.2V176.07l7.88,4.55v1.73l-5.63-3.24v3.46l4.5,2.6v1.73l-4.5-2.6v3.47l5.63,3.24v1.73Z" style="fill:#fff"></path><path d="M460.45,193.39V181.27l6.75,3.9v1.73l1.13.65v5.2l-2.25-1.3v1.73l1.12.65v1.73l1.13.65v1.73L465,196v-1.73l-1.12-.65v-1.73l-1.13-.65v3.46Zm2.25-3.89,2.25,1.3v-1.73l1.13.64v-3.46l-3.38-1.95Z" style="fill:#fff"></path></g><path d="M429,236.18v-3.46l1.13.65v-1.73l1.12.65v-1.74l1.13.65v-1.73l1.12.65v-1.73l-4.5-2.6v-1.73l7.88,4.55v3.46l-1.13-.65v1.73l-1.12-.65v1.74l-1.13-.65v1.73l-1.12-.65v1.73l4.5,2.6v1.73Z" style="fill:#A11818"></path><path d="M439.08,242V240.3l-1.13-.65V231l1.13.65V229.9l5.62,3.25v1.73l1.13.65v8.66l-1.13-.65v1.74ZM440.2,241l3.38,2v-8.66l-3.38-2Z" style="fill:#A11818"></path><path d="M447,246.58V234.45l2.25,1.3v1.73l1.13.65v1.73l1.12.65v1.74l1.13.64V237.7l2.25,1.3v12.12l-2.25-1.3v-3.46l-1.13-.65V244l-1.12-.65V241.6L449.2,241v6.92Z" style="fill:#A11818"></path><path d="M456,251.77V239.65l7.88,4.54v1.74l-5.63-3.25v3.46l4.5,2.6v1.73l-4.5-2.59v3.46l5.63,3.25v1.73Z" style="fill:#A11818"></path><g style="opacity:0.5"><path d="M429,236.18v-3.46l1.13.65v-1.73l1.12.65v-1.74l1.13.65v-1.73l1.12.65v-1.73l-4.5-2.6v-1.73l7.88,4.55v3.46l-1.13-.65v1.73l-1.12-.65v1.74l-1.13-.65v1.73l-1.12-.65v1.73l4.5,2.6v1.73Z" style="fill:#fff"></path><path d="M439.08,242V240.3l-1.13-.65V231l1.13.65V229.9l5.62,3.25v1.73l1.13.65v8.66l-1.13-.65v1.74ZM440.2,241l3.38,2v-8.66l-3.38-2Z" style="fill:#fff"></path><path d="M447,246.58V234.45l2.25,1.3v1.73l1.13.65v1.73l1.12.65v1.74l1.13.64V237.7l2.25,1.3v12.12l-2.25-1.3v-3.46l-1.13-.65V244l-1.12-.65V241.6L449.2,241v6.92Z" style="fill:#fff"></path><path d="M456,251.77V239.65l7.88,4.54v1.74l-5.63-3.25v3.46l4.5,2.6v1.73l-4.5-2.59v3.46l5.63,3.25v1.73Z" style="fill:#fff"></path></g></g></g><g id="freepik--arcade-machine--inject-99"><g id="freepik--Plug--inject-99"><polygon points="449.07 306.5 428.76 294.77 426.64 296 426.64 333.52 446.95 345.25 449.07 344.02 449.07 306.5" style="fill:#37474f"></polygon><polygon points="426.64 333.52 446.95 345.25 446.95 307.72 426.64 296 426.64 333.52" style="fill:#455a64"></polygon><path d="M432.51,306.32l8.56,4.94a1.91,1.91,0,0,1,.86,1.5v7.38c0,.55-.38.78-.86.5l-8.56-4.94a1.9,1.9,0,0,1-.86-1.5v-7.38C431.65,306.27,432,306,432.51,306.32Z" style="fill:#37474f"></path><polygon points="434.44 309.14 435.68 309.86 435.67 315.82 434.44 315.11 434.44 309.14" style="fill:#263238"></polygon><polygon points="437.9 311.14 439.14 311.86 439.14 317.82 437.9 317.11 437.9 311.14" style="fill:#263238"></polygon><path d="M432.51,320.39l8.56,4.94a1.91,1.91,0,0,1,.86,1.5v7.38c0,.56-.38.78-.86.5l-8.56-4.94a1.88,1.88,0,0,1-.86-1.5v-7.38C431.65,320.34,432,320.12,432.51,320.39Z" style="fill:#37474f"></path><polygon points="434.44 323.21 435.68 323.93 435.67 329.89 434.44 329.18 434.44 323.21" style="fill:#263238"></polygon><polygon points="437.9 325.21 439.14 325.93 439.14 331.89 437.9 331.18 437.9 325.21" style="fill:#263238"></polygon><polygon points="424.94 328.33 426.47 327.44 426.47 325.39 432.54 321.88 440.93 326.73 435.05 330.13 431.49 330.13 429.78 331.12 424.94 328.33" style="fill:#455a64"></polygon><path d="M432.54,322.17l7.89,4.56L435,329.88h-3.56l-.11.07-1.53.88-4.34-2.5,1-.6.25-.14v-2.06l5.82-3.36m0-.58-6.32,3.66v2.05l-1.78,1,5.34,3.08,1.78-1h3.55l6.32-3.65-8.89-5.14Z" style="fill:#37474f"></path><polygon points="424.44 328.33 424.44 335 429.78 338.08 431.56 337.06 435.11 337.06 441.43 333.4 441.43 326.73 435.11 330.38 431.56 330.38 429.78 331.41 424.44 328.33" style="fill:#37474f"></polygon><polygon points="431.56 330.38 431.56 337.06 429.78 338.08 429.78 331.41 431.56 330.38" style="fill:#263238"></polygon><polygon points="435.11 330.38 441.43 326.73 441.43 333.4 435.11 337.06 435.11 330.38" style="fill:#263238"></polygon><path d="M425.49,330.79l-1.91,1.1h0a1.51,1.51,0,0,0-.63,1.39A4.75,4.75,0,0,0,425.1,337a1.53,1.53,0,0,0,1.52.15h0l1.9-1.1a1.51,1.51,0,0,0,.63-1.39,4.76,4.76,0,0,0-2.15-3.73A1.53,1.53,0,0,0,425.49,330.79Z" style="fill:#455a64"></path><path d="M423,333.28A4.75,4.75,0,0,0,425.1,337c1.19.68,2.15.13,2.15-1.24A4.76,4.76,0,0,0,425.1,332C423.91,331.36,423,331.91,423,333.28Z" style="fill:#263238"></path><path d="M396.23,403.77a1,1,0,0,1-.86-.5,1,1,0,0,1,.36-1.36l16.9-9.76a14,14,0,0,0,7-12.08V342.3a10,10,0,0,1,5-8.65A1,1,0,0,1,426,334a1,1,0,0,1-.37,1.37,8,8,0,0,0-4,6.92v37.77a16,16,0,0,1-8,13.82l-16.9,9.75A1,1,0,0,1,396.23,403.77Z" style="fill:#37474f"></path></g><g id="freepik--Arcade--inject-99"><path d="M299.46,75.29a10.72,10.72,0,0,0-1.63-5.21L282.48,47.92a2.94,2.94,0,0,0-1-.9l-4.57-2.64a3.17,3.17,0,0,0-3.13,0L213.61,79.1a6.18,6.18,0,0,0-1.85,1.8,6.09,6.09,0,0,0-1.07,2.46l-3.77,23.9a1.77,1.77,0,0,0,.72,1.92l4.6,2.66a2.06,2.06,0,0,0,1.57.09l10-2.88.64-.15a5.12,5.12,0,0,1,.18,1.91l-8,101.78c-.45,5.68-4.59,13-9.21,16.39l-26.51,19.13a5.26,5.26,0,0,0-1.94,4.51l3.89,29.25a2,2,0,0,0,.92,1.54l4.58,2.64a1.93,1.93,0,0,0,1.94-.13l16.07-9.28.32-.15a1.66,1.66,0,0,1,0,.22L211,389.3a1.82,1.82,0,0,0,.78,1.59l4.58,2.65a1.81,1.81,0,0,0,1.8-.16l78.8-45.5a5.5,5.5,0,0,0,2.48-4.29Z" style="fill:#A11818"></path><path d="M299.46,75.29a10.72,10.72,0,0,0-1.63-5.21L282.48,47.92a2.94,2.94,0,0,0-1-.9l-4.57-2.64a3.17,3.17,0,0,0-3.13,0L213.61,79.1a6.18,6.18,0,0,0-1.85,1.8,6.09,6.09,0,0,0-1.07,2.46l-3.77,23.9a1.77,1.77,0,0,0,.72,1.92l4.6,2.66a2.06,2.06,0,0,0,1.57.09l10-2.88.64-.15a5.12,5.12,0,0,1,.18,1.91l-8,101.78c-.45,5.68-4.59,13-9.21,16.39l-26.51,19.13a5.26,5.26,0,0,0-1.94,4.51l3.89,29.25a2,2,0,0,0,.92,1.54l4.58,2.64a1.93,1.93,0,0,0,1.94-.13l16.07-9.28.32-.15a1.66,1.66,0,0,1,0,.22L211,389.3a1.82,1.82,0,0,0,.78,1.59l4.58,2.65a1.81,1.81,0,0,0,1.8-.16l78.8-45.5a5.5,5.5,0,0,0,2.48-4.29Z" style="fill:#fff;opacity:0.7000000000000001"></path><path d="M297.83,70.08,282.48,47.92a3.16,3.16,0,0,0-4.11-.92L218.19,81.74A6.86,6.86,0,0,0,215.26,86L211.5,109.9a1.68,1.68,0,0,0,2.31,2l10-2.88c3.23-.93,5.66,1,5.4,4.4l-8,101.78c-.45,5.68-4.6,13.06-9.22,16.39l-26.5,19.13a5.26,5.26,0,0,0-1.94,4.51l3.89,29.25a1.79,1.79,0,0,0,2.86,1.41l16.07-9.28c2.59-1.5,4.81-.28,4.93,2.72L215.61,392a1.58,1.58,0,0,0,2.58,1.43l2.17-1.26L297,347.88a5.5,5.5,0,0,0,2.48-4.29V75.29A10.72,10.72,0,0,0,297.83,70.08Z" style="fill:#A11818"></path><path d="M297.83,70.08,282.48,47.92a3.16,3.16,0,0,0-4.11-.92L218.19,81.74A6.86,6.86,0,0,0,215.26,86L211.5,109.9a1.68,1.68,0,0,0,2.31,2l10-2.88c3.23-.93,5.66,1,5.4,4.4l-8,101.78c-.45,5.68-4.6,13.06-9.22,16.39l-26.5,19.13a5.26,5.26,0,0,0-1.94,4.51l3.89,29.25a1.79,1.79,0,0,0,2.86,1.41l16.07-9.28c2.59-1.5,4.81-.28,4.93,2.72L215.61,392a1.58,1.58,0,0,0,2.58,1.43l2.17-1.26L297,347.88a5.5,5.5,0,0,0,2.48-4.29V75.29A10.72,10.72,0,0,0,297.83,70.08Z" style="fill:#fff;opacity:0.30000000000000004"></path><path d="M398.39,130.53,383,108.37a.2.2,0,0,0-.08-.08l-.1-.07h0a.37.37,0,0,0-.14-.08L280.36,49h0a1,1,0,0,0-.46-.13.71.71,0,0,0-.37.09L219.34,83.73a3.42,3.42,0,0,0-1,1l-.13.16a4,4,0,0,0-.68,1.51l-3.65,23.16,17.14,9.9-7.56,96a24.73,24.73,0,0,1-3.05,9.51,10,10,0,0,1-.56,1,24.82,24.82,0,0,1-6.55,7.55l-26.5,19.13a2.78,2.78,0,0,0-.89,1.41,1.87,1.87,0,0,0-.08.32,1.49,1.49,0,0,0,0,.62l3.82,28.69,24.66,14.23h0l3.6,93,102.44,59.14,78-45a3.27,3.27,0,0,0,1.33-2.3V134.44A8.63,8.63,0,0,0,398.39,130.53Z" style="fill:#455a64"></path><path d="M333.91,172.78l-8,101.78a25,25,0,0,1-3,9.52L220.41,224.92a24.73,24.73,0,0,0,3.05-9.51l7.56-96,85.31,49.26,9.26-2.68a7.74,7.74,0,0,1,2.19-.32,6,6,0,0,1,4.5,1.89A6.75,6.75,0,0,1,333.91,172.78Z" style="fill:#37474f"></path><path d="M237.71,217.89a272.22,272.22,0,0,0,30.13,20.41,439.21,439.21,0,0,0,41.71,20.63c5.21,2.27,9.92-.57,10.45-6.22.76-8.25,1.76-18.51,2.51-29.37.74-10.63,1.3-22,1.66-29.85.25-5.67-3.18-13.13-7.81-16.42a361.27,361.27,0,0,0-32.23-20.25c-15.08-8.46-27.95-14.77-36.11-18.59a8.43,8.43,0,0,0-12.09,5.68,187.74,187.74,0,0,0-5.27,33.44c-.54,9.86-.73,17.22-.84,23.77C229.73,206.79,233.23,214.4,237.71,217.89Z" style="fill:#263238"></path><path d="M311,250.4a5.41,5.41,0,0,1-2.19-.48,430.85,430.85,0,0,1-41.21-20.38h0a264.38,264.38,0,0,1-29.41-19.93,8.61,8.61,0,0,1-2.87-4.78c.09-5.83.26-13.12.81-23.31a177.72,177.72,0,0,1,5-31.53,4.46,4.46,0,0,1,2.53-2.77,5.94,5.94,0,0,1,5.08,0c8.07,3.78,20.83,10,35.79,18.42q2.24,1.26,4.36,2.49c12.38,7.14,21.69,13.42,27.33,17.43a6.77,6.77,0,0,1,2.57,3.86c-.35,7.71-.91,19-1.64,29.59-.62,9.06-1.42,17.61-2.13,25.16l-.36,3.94a3,3,0,0,1-1.61,1.84A4.48,4.48,0,0,1,311,250.4Zm-42.84-21.86a430,430,0,0,0,41.11,20.33,3.67,3.67,0,0,0,3.24,0,2,2,0,0,0,1-1l.35-3.81c.71-7.61,1.51-16.16,2.13-25.2.73-10.55,1.29-21.86,1.63-29.49a6,6,0,0,0-2.08-2.95c-5.62-4-14.91-10.25-27.25-17.37-1.41-.82-2.86-1.64-4.34-2.48C269,158.24,256.26,152,248.21,148.23a4.79,4.79,0,0,0-4.1,0,3.43,3.43,0,0,0-1.92,2,176.14,176.14,0,0,0-5,31.33c-.55,10.16-.73,17.44-.82,23.22a7.81,7.81,0,0,0,2.43,3.89,262.14,262.14,0,0,0,29.28,19.84Zm-.28.5Z" style="fill:#A11818"></path><path d="M252.61,199.12l.07-.9,1.23.71.36-4.49-1.23-.71.08-.9,3.67,2.12-.07.9-1.23-.71-.36,4.49,1.23.71-.08.9Z" style="fill:#fafafa"></path><path d="M256.9,201.59l.5-6.29,1.22.71-.07.9.61.35-.07.9.61.35-.07.9.61.35.22-2.69,1.22.71-.5,6.29-1.23-.71.15-1.8-.61-.35.07-.9L259,200l.07-.9-.61-.36-.29,3.6Z" style="fill:#fafafa"></path><path d="M262.4,204.77l.07-.9-.61-.35.07-.9,1.23.71-.07.9,1.83,1.06.14-1.8-2.44-1.41.07-.9-.61-.36.14-1.79.61.35.07-.9,3.06,1.77-.07.9.61.35-.07.9-1.22-.71.07-.9-1.83-1.06-.15,1.8,2.45,1.41-.07.9.61.35-.14,1.8-.62-.35-.07.9Z" style="fill:#fafafa"></path><path d="M266.68,207.24l.51-6.29,4.28,2.48-.07.9-3.06-1.77-.15,1.8,2.45,1.41-.07.9-2.45-1.42-.14,1.8,3.06,1.77-.07.9Z" style="fill:#fafafa"></path><path d="M271.58,210.07l.5-6.29,3.67,2.12-.07.9.61.35-.21,2.7-1.23-.71-.07.9.61.35-.07.9.61.35-.07.9L274,211.48l.08-.9-.61-.35.07-.9L273,209l-.15,1.8Zm1.44-2,1.22.71.07-.9.61.35.15-1.8-1.84-1.06Z" style="fill:#fafafa"></path><path d="M278.31,214l.43-5.39-1.22-.7.07-.9,3.67,2.12-.07.9-1.23-.71-.43,5.39Z" style="fill:#fafafa"></path><path d="M257.43,210.92l.07-.89-.61-.36.07-.9-.61-.35.22-2.69.61.35.07-.9.61.35.07-.89,2.45,1.41-.07.9.61.35-.07.9-1.23-.71.08-.9-1.23-.7-.07.9-.61-.36-.22,2.7.61.35-.07.9,1.23.71.07-.9,1.22.7-.07.9-.61-.35-.07.9Z" style="fill:#fafafa"></path><path d="M261.71,213.4l.07-.9-.61-.35.36-4.5.61.36.08-.9,3,1.76-.07.9.61.36-.35,4.49-.62-.36-.07.9Zm.69-.55,1.83,1.06.36-4.49-1.83-1.06Z" style="fill:#fafafa"></path><path d="M266.61,216.22l.07-.9,1.22.71.36-4.49-1.22-.71.07-.9,3.67,2.12-.07.9-1.23-.71-.35,4.5,1.22.7-.07.9Z" style="fill:#fafafa"></path><path d="M270.89,218.7l.5-6.29,1.23.7-.08.9.61.35-.07.9.61.36-.07.89.61.36.22-2.7,1.22.71-.5,6.29-1.22-.71.14-1.8-.61-.35.07-.9-.61-.35.07-.9-.61-.35-.29,3.59Z" style="fill:#fafafa"></path><path d="M247.85,172.77l.11-1.39-1-.55.11-1.39-1-.55.34-4.18,1,.55.11-1.39,1,.55.11-1.4,4.74,2.74-.11,1.39-3.8-2.19-.11,1.4-.95-.55-.33,4.18,1,.54-.11,1.39,1.89,1.1.23-2.78-.95-.55.11-1.39,2.84,1.64-.44,5.57Z" style="fill:#A11818"></path><path d="M253.54,176.05l.55-7,.95.55.11-1.39,1,.55.11-1.4,2.85,1.64-.12,1.4.95.54-.11,1.4,1,.54-.56,7-1.89-1.1.22-2.78-2.85-1.65-.22,2.79Zm2.23-3.08,2.84,1.64.22-2.78-.95-.55.11-1.39-.94-.55-.11,1.39-.95-.54Z" style="fill:#A11818"></path><path d="M261.12,180.43l.78-9.74,1.89,1.09-.11,1.39.95.55-.11,1.39,1,.55.11-1.39.95.54.11-1.39,1.89,1.1-.77,9.74-1.9-1.09.44-5.57-.94-.55-.23,2.79-.94-.55.22-2.78-1-.55-.45,5.57Z" style="fill:#A11818"></path><path d="M268.7,184.81l.78-9.75,6.64,3.83-.12,1.4-4.73-2.74-.23,2.79,3.79,2.19-.11,1.39-3.79-2.19-.22,2.78,4.74,2.74-.11,1.39Z" style="fill:#A11818"></path><path d="M281,191.9l.11-1.4-.95-.54.56-7,.94.55.11-1.39,4.75,2.74-.12,1.39,1,.55-.56,7-.94-.55-.11,1.39Zm1.05-.85,2.85,1.64.56-7-2.85-1.64Z" style="fill:#A11818"></path><path d="M290.47,197.37l.12-1.39-.95-.55.11-1.39-.95-.55.11-1.39-1-.55.45-5.57,1.9,1.09-.34,4.18.95.55-.11,1.39.95.55.11-1.39.95.55.33-4.18,1.89,1.09-.44,5.57-1-.55-.11,1.4-1-.55-.11,1.39-1-.55-.11,1.4Z" style="fill:#A11818"></path><path d="M295.22,200.11l.77-9.75,6.64,3.83-.11,1.39-4.74-2.73-.22,2.78,3.79,2.19-.11,1.39-3.8-2.19-.22,2.79,4.74,2.73-.11,1.4Z" style="fill:#A11818"></path><path d="M302.8,204.48l.78-9.74,5.68,3.28-.11,1.39,1,.55-.33,4.18-1.9-1.1-.11,1.4.95.54-.11,1.39.94.55-.11,1.39-2.84-1.64.11-1.39-.95-.55.11-1.39-.94-.55-.23,2.79ZM305,201.4l1.89,1.1.11-1.4,1,.55.23-2.78-2.85-1.64Z" style="fill:#A11818"></path><polygon points="291.62 219.77 290.98 219.4 291.05 218.45 291.7 218.82 291.62 219.77" style="fill:#fafafa"></polygon><polygon points="290.9 220.34 290.25 219.96 290.33 219.02 290.98 219.39 290.9 220.34" style="fill:#fafafa"></polygon><polygon points="294.13 222.2 293.48 221.83 293.56 220.88 294.2 221.25 294.13 222.2" style="fill:#fafafa"></polygon><polygon points="290.52 225.07 289.88 224.7 289.95 223.75 290.6 224.13 290.52 225.07" style="fill:#fafafa"></polygon><polygon points="293.75 226.94 293.1 226.56 293.18 225.62 293.82 225.99 293.75 226.94" style="fill:#fafafa"></polygon><polygon points="292.27 220.14 291.62 219.77 291.7 218.82 292.34 219.19 292.27 220.14" style="fill:#fafafa"></polygon><polygon points="292.91 220.51 292.27 220.14 292.34 219.19 292.99 219.56 292.91 220.51" style="fill:#fafafa"></polygon><polygon points="293.56 220.88 292.91 220.51 292.99 219.56 293.63 219.94 293.56 220.88" style="fill:#fafafa"></polygon><polygon points="291.09 226.39 290.45 226.01 290.52 225.07 291.17 225.44 291.09 226.39" style="fill:#fafafa"></polygon><polygon points="291.74 226.76 291.09 226.39 291.17 225.44 291.81 225.81 291.74 226.76" style="fill:#fafafa"></polygon><polygon points="292.38 227.13 291.74 226.76 291.81 225.81 292.46 226.19 292.38 227.13" style="fill:#fafafa"></polygon><polygon points="293.03 227.5 292.38 227.13 292.46 226.19 293.1 226.56 293.03 227.5" style="fill:#fafafa"></polygon><polygon points="290.03 222.81 289.95 223.75 289.31 223.38 289.38 222.43 290.03 222.81" style="fill:#fafafa"></polygon><polygon points="290.1 221.86 290.03 222.81 289.38 222.43 289.46 221.49 290.1 221.86" style="fill:#fafafa"></polygon><polygon points="290.18 220.91 290.1 221.86 289.46 221.49 289.54 220.54 290.18 220.91" style="fill:#fafafa"></polygon><polygon points="290.25 219.96 290.18 220.91 289.54 220.54 289.61 219.59 290.25 219.96" style="fill:#fafafa"></polygon><polygon points="294.54 225.41 294.47 226.36 293.82 225.99 293.9 225.04 294.54 225.41" style="fill:#fafafa"></polygon><polygon points="294.62 224.47 294.54 225.41 293.9 225.04 293.97 224.09 294.62 224.47" style="fill:#fafafa"></polygon><polygon points="294.69 223.52 294.62 224.47 293.97 224.09 294.05 223.15 294.69 223.52" style="fill:#fafafa"></polygon><polygon points="294.77 222.57 294.69 223.52 294.05 223.15 294.13 222.2 294.77 222.57" style="fill:#fafafa"></polygon><polygon points="289.84 216.76 289.19 216.38 289.27 215.44 289.91 215.81 289.84 216.76" style="fill:#fafafa"></polygon><polygon points="290.56 216.18 289.91 215.81 289.99 214.86 290.63 215.23 290.56 216.18" style="fill:#fafafa"></polygon><polygon points="291.2 216.55 290.56 216.18 290.63 215.23 291.28 215.61 291.2 216.55" style="fill:#fafafa"></polygon><polygon points="291.92 215.98 291.28 215.61 291.35 214.66 292 215.03 291.92 215.98" style="fill:#fafafa"></polygon><polygon points="292.57 216.35 291.92 215.98 292 215.03 292.64 215.4 292.57 216.35" style="fill:#fafafa"></polygon><polygon points="293.21 216.72 292.57 216.35 292.64 215.4 293.29 215.78 293.21 216.72" style="fill:#fafafa"></polygon><polygon points="293.86 217.09 293.21 216.72 293.29 215.78 293.93 216.15 293.86 217.09" style="fill:#fafafa"></polygon><polygon points="289.12 217.33 288.47 216.96 288.55 216.01 289.19 216.38 289.12 217.33" style="fill:#fafafa"></polygon><polygon points="288.4 217.91 287.75 217.53 287.83 216.59 288.47 216.96 288.4 217.91" style="fill:#fafafa"></polygon><polygon points="288.32 218.85 287.67 218.47 287.75 217.53 288.39 217.9 288.32 218.85" style="fill:#fafafa"></polygon><polygon points="287.6 219.42 286.95 219.05 287.03 218.1 287.67 218.47 287.6 219.42" style="fill:#fafafa"></polygon><polygon points="287.52 220.37 286.88 220 286.95 219.05 287.6 219.42 287.52 220.37" style="fill:#fafafa"></polygon><polygon points="287.45 221.31 286.8 220.94 286.88 220 287.52 220.37 287.45 221.31" style="fill:#fafafa"></polygon><polygon points="287.37 222.26 286.73 221.89 286.8 220.94 287.45 221.31 287.37 222.26" style="fill:#fafafa"></polygon><polygon points="295 219.74 295.64 220.11 295.72 219.16 295.07 218.79 295 219.74" style="fill:#fafafa"></polygon><polygon points="294.43 218.41 295.07 218.79 295.15 217.84 294.5 217.47 294.43 218.41" style="fill:#fafafa"></polygon><polygon points="293.78 218.04 294.43 218.41 294.5 217.47 293.86 217.09 293.78 218.04" style="fill:#fafafa"></polygon><polygon points="295.57 221.05 296.21 221.43 296.29 220.48 295.64 220.11 295.57 221.05" style="fill:#fafafa"></polygon><polygon points="296.14 222.37 296.78 222.75 296.86 221.8 296.21 221.43 296.14 222.37" style="fill:#fafafa"></polygon><polygon points="296.06 223.32 296.71 223.69 296.78 222.74 296.14 222.37 296.06 223.32" style="fill:#fafafa"></polygon><polygon points="294.24 229.2 294.89 229.57 294.81 230.52 294.17 230.14 294.24 229.2" style="fill:#fafafa"></polygon><polygon points="293.52 229.77 294.17 230.14 294.09 231.09 293.44 230.72 293.52 229.77" style="fill:#fafafa"></polygon><polygon points="292.88 229.4 293.52 229.77 293.44 230.72 292.8 230.35 292.88 229.4" style="fill:#fafafa"></polygon><polygon points="292.15 229.97 292.8 230.35 292.72 231.29 292.08 230.92 292.15 229.97" style="fill:#fafafa"></polygon><polygon points="291.51 229.6 292.15 229.97 292.08 230.92 291.43 230.55 291.51 229.6" style="fill:#fafafa"></polygon><polygon points="290.86 229.23 291.51 229.6 291.43 230.55 290.79 230.18 290.86 229.23" style="fill:#fafafa"></polygon><polygon points="290.22 228.86 290.86 229.23 290.79 230.18 290.14 229.8 290.22 228.86" style="fill:#fafafa"></polygon><polygon points="294.96 228.62 295.61 228.99 295.53 229.94 294.89 229.57 294.96 228.62" style="fill:#fafafa"></polygon><polygon points="295.68 228.05 296.33 228.42 296.25 229.37 295.61 228.99 295.68 228.05" style="fill:#fafafa"></polygon><polygon points="295.76 227.11 296.4 227.48 296.33 228.43 295.68 228.05 295.76 227.11" style="fill:#fafafa"></polygon><polygon points="289.08 226.22 288.44 225.84 288.36 226.79 289 227.16 289.08 226.22" style="fill:#fafafa"></polygon><polygon points="289.65 227.54 289 227.16 288.93 228.11 289.57 228.48 289.65 227.54" style="fill:#fafafa"></polygon><polygon points="290.3 227.91 289.65 227.54 289.57 228.48 290.22 228.86 290.3 227.91" style="fill:#fafafa"></polygon><polygon points="288.51 224.9 287.87 224.53 287.79 225.47 288.44 225.84 288.51 224.9" style="fill:#fafafa"></polygon><polygon points="287.94 223.58 287.3 223.21 287.22 224.15 287.87 224.53 287.94 223.58" style="fill:#fafafa"></polygon><polygon points="288.02 222.63 287.37 222.26 287.3 223.21 287.94 223.58 288.02 222.63" style="fill:#fafafa"></polygon><polygon points="296.63 224.64 297.28 225.01 297.35 224.06 296.71 223.69 296.63 224.64" style="fill:#fafafa"></polygon><polygon points="296.56 225.58 297.2 225.96 297.28 225.01 296.63 224.64 296.56 225.58" style="fill:#fafafa"></polygon><polygon points="296.48 226.53 297.13 226.9 297.2 225.96 296.56 225.58 296.48 226.53" style="fill:#fafafa"></polygon><polygon points="296.4 227.48 297.05 227.85 297.13 226.9 296.48 226.53 296.4 227.48" style="fill:#fafafa"></polygon><path d="M316.36,177.07c-3.76-2.67-8.77-6.09-14.95-10q-35.12,19.8-69.4,43.13a21.17,21.17,0,0,0,5.7,7.67c1.94,1.5,4.19,3.22,6.7,5.05,23.77-16.43,47.81-31.74,72.15-45.71Zm6,7.93a698.9,698.9,0,0,0-69.79,43.7c3.46,2.35,7.21,4.78,11.17,7.18C283.55,221.72,303.62,208.67,324,197c.05-1.21.11-2.37.16-3.47A19.94,19.94,0,0,0,322.36,185Z" style="fill:#fff;opacity:0.1"></path><path d="M320.31,450.06,217.87,390.92l-3.6-93,77.8,44.9,15.57-9a6.49,6.49,0,0,1,3.27-.95c2.86,0,5,2.29,5.09,5.56Z" style="fill:#263238"></path><path d="M240.24,336.89l1.45,28.45a7.77,7.77,0,0,0,3.43,5.73l36.08,20.82c1.79,1,3.15.15,3-2l-1.44-28.45a7.81,7.81,0,0,0-3.44-5.73L243.28,334.9C241.49,333.87,240.13,334.76,240.24,336.89Z" style="fill:#e0e0e0"></path><path d="M279,358.4a3.09,3.09,0,0,1,1.35,2.23c.06.83-.47,1.17-1.18.77a3.06,3.06,0,0,1-1.35-2.23C277.75,358.34,278.28,358,279,358.4Z" style="fill:#455a64"></path><path d="M280.35,385.6a3.08,3.08,0,0,1,1.36,2.22c.05.83-.48,1.18-1.18.77a3,3,0,0,1-1.35-2.23C279.13,385.54,279.66,385.2,280.35,385.6Z" style="fill:#455a64"></path><path d="M243.61,337.74A3.07,3.07,0,0,1,245,340c.06.84-.47,1.18-1.18.77a3.05,3.05,0,0,1-1.35-2.23C242.39,337.68,242.92,337.34,243.61,337.74Z" style="fill:#455a64"></path><path d="M245,364.93a3.1,3.1,0,0,1,1.36,2.23c.05.83-.48,1.18-1.18.77a3,3,0,0,1-1.35-2.23C243.77,364.88,244.3,364.53,245,364.93Z" style="fill:#455a64"></path><path d="M257.17,357l2.19,1.27a4.67,4.67,0,0,1,2.06,3.43l.13,2.61c.07,1.28-.75,1.81-1.82,1.19l-2.2-1.27a4.68,4.68,0,0,1-2.06-3.43l-.13-2.61C255.28,356.92,256.09,356.38,257.17,357Z" style="fill:#455a64"></path><path d="M267.42,363.67l.29,5.69a1.56,1.56,0,0,0,.69,1.15l.22.12c.35.21.63,0,.6-.39l-.28-5.69a1.59,1.59,0,0,0-.69-1.15l-.22-.13C267.67,363.07,267.4,363.25,267.42,363.67Z" style="fill:#455a64"></path><path d="M264.25,361.84l.29,5.69a1.54,1.54,0,0,0,.69,1.14l.21.13c.36.21.64,0,.61-.4l-.29-5.69a1.53,1.53,0,0,0-.68-1.14l-.22-.13C264.5,361.23,264.23,361.41,264.25,361.84Z" style="fill:#455a64"></path><path d="M320.77,143.84s-.08.09-.11.15a4.29,4.29,0,0,0-.69,1.51l-3.64,23.18L231,119.42l-17.14-9.9,3.65-23.16a4,4,0,0,1,.68-1.51l.13-.16Z" style="fill:#37474f"></path><path d="M213.88,109.52l17.14,9.9,84.44,48.76.87.5.33-2.14L214.22,107.39Zm4.46-24.83-.13.16a4,4,0,0,0-.68,1.51l0,.17,102.44,59.15,0-.18a4.29,4.29,0,0,1,.69-1.51c0-.06.08-.1.11-.15Z" style="fill:#A11818;opacity:0.5"></path><path d="M327.78,165.68a7.74,7.74,0,0,0-2.19.32l-9.26,2.68L231,119.42l-1.66,21,10.43,6,92,53.13,2.11-26.8a6.75,6.75,0,0,0-1.63-5.21A6,6,0,0,0,327.78,165.68Z" style="opacity:0.2"></path><path d="M399.62,134.44v268.3a3.27,3.27,0,0,1-1.33,2.3l-78,45L316,338.41c-.13-3.27-2.23-5.56-5.09-5.56a6.49,6.49,0,0,0-3.27.95l-15.57,9-3.84-28.68a2.2,2.2,0,0,1,.12-.95,3,3,0,0,1,.9-1.41l26.49-19.13a24.85,24.85,0,0,0,6.56-7.55c.19-.32.39-.65.56-1a25,25,0,0,0,3-9.52l8-101.78a6.75,6.75,0,0,0-1.63-5.21,6,6,0,0,0-4.5-1.89,7.74,7.74,0,0,0-2.19.32l-9.26,2.68L320,145.5a4.29,4.29,0,0,1,.69-1.51c0-.06.08-.1.11-.15a3.63,3.63,0,0,1,1-1L382,108.13a.68.68,0,0,1,.36-.1.89.89,0,0,1,.41.1.37.37,0,0,1,.14.08.15.15,0,0,1,.08.08.2.2,0,0,1,.08.08l15.35,22.16A8.63,8.63,0,0,1,399.62,134.44Z" style="fill:#455a64"></path><path d="M322.86,284.08c-.17.34-.37.67-.56,1L219.85,225.93a10,10,0,0,0,.56-1Z" style="fill:#e0e0e0"></path><path d="M214.27,297.89h0l-24.66-14.23L185.79,255a1.49,1.49,0,0,1,0-.62,1.87,1.87,0,0,1,.08-.32l102.44,59.14,3.72,29.63Z" style="fill:#37474f"></path><path d="M288.35,313.16,185.91,254a1.87,1.87,0,0,0-.08.32,1.49,1.49,0,0,0,0,.62l1.4,10.55,102.62,59.25Z" style="fill:#A11818"></path><path d="M288.35,313.16,185.91,254a1.87,1.87,0,0,0-.08.32,1.49,1.49,0,0,0,0,.62l1.4,10.55,102.62,59.25Z" style="fill:#fff;opacity:0.5"></path><path d="M239.89,118.2l2-8.77,1.28.75.4-1.76,1.29.75.4-1.76,3.87,2.24-.4,1.75,1.29.74-.4,1.76,1.29.74-2,8.77-2.58-1.49.8-3.51-3.86-2.23-.8,3.51Zm3.77-3.77,3.87,2.23.8-3.51-1.29-.74.4-1.75-1.29-.75-.4,1.76-1.29-.75Z" style="fill:#fafafa"></path><path d="M249.17,123.56,252,111.28l7.73,4.47-.4,1.75,1.29.74-1.19,5.27L256.81,122l-.4,1.75,1.29.75-.4,1.75,1.29.74-.4,1.76-3.86-2.23.39-1.76-1.29-.74.4-1.76-1.29-.74-.79,3.51Zm3.77-3.77,2.58,1.48.4-1.75,1.29.74.8-3.5-3.87-2.24Z" style="fill:#fafafa"></path><path d="M261,130.4l.39-1.75-1.28-.74.39-1.76-1.28-.74,1.19-5.26,1.29.74.4-1.75,1.29.74.4-1.75,5.15,3-.4,1.76,1.29.74-.4,1.76-2.57-1.49.39-1.76-2.57-1.48-.4,1.75-1.29-.74-1.2,5.26,1.29.74-.39,1.75,2.57,1.49.4-1.75,2.58,1.49-.4,1.75-1.29-.74-.4,1.75Z" style="fill:#fafafa"></path><path d="M267.73,134.27l2-8.77,1.29.75.4-1.76,1.29.75.4-1.76,3.86,2.24-.4,1.75,1.29.74-.4,1.76,1.29.74-2,8.77L274.17,138l.8-3.5-3.87-2.24-.8,3.51Zm3.77-3.77,3.87,2.23.79-3.51-1.29-.74.4-1.75L274,126l-.4,1.76L272.3,127Z" style="fill:#fafafa"></path><path d="M277,139.63l2.79-12.28,6.44,3.72-.4,1.76,1.29.74-.4,1.76,1.29.74-1.2,5.26-1.28-.74-.4,1.75-1.29-.74-.4,1.75Zm3-.27,2.58,1.49.4-1.75,1.29.74,1.19-5.26-1.29-.74.4-1.76L282,130.6Z" style="fill:#fafafa"></path><path d="M286.28,145l2.8-12.28,9,5.21-.39,1.75L291.25,136l-.79,3.51,5.15,3-.4,1.75-5.15-3-.8,3.51,6.44,3.72-.4,1.76Z" style="fill:#fafafa"></path><path d="M406.49,137.08a10.82,10.82,0,0,0-1.63-5.21l-15.35-22.16a3.07,3.07,0,0,0-1-.9l-4.57-2.64a3.16,3.16,0,0,0-3.12,0l-60.19,34.75a6.29,6.29,0,0,0-1.85,1.8,6.23,6.23,0,0,0-1.07,2.46L314,169a1.76,1.76,0,0,0,.72,1.93c.4.24,4,2.33,4.59,2.65a2,2,0,0,0,1.57.1l10-2.88.64-.15a5.12,5.12,0,0,1,.18,1.91l-8,101.78c-.45,5.68-4.59,13.05-9.21,16.39L287.9,309.89a5.32,5.32,0,0,0-1.94,4.52l3.9,29.25a2,2,0,0,0,.91,1.54l4.58,2.64a1.93,1.93,0,0,0,1.94-.13l16.07-9.28a2.3,2.3,0,0,1,.32-.15,1.66,1.66,0,0,1,0,.22l4.34,112.59a1.8,1.8,0,0,0,.79,1.59l4.57,2.65a1.79,1.79,0,0,0,1.8-.17L404,409.67a5.51,5.51,0,0,0,2.48-4.29Z" style="fill:#A11818"></path><path d="M406.49,137.08a10.82,10.82,0,0,0-1.63-5.21l-15.35-22.16a3.07,3.07,0,0,0-1-.9l-4.57-2.64a3.16,3.16,0,0,0-3.12,0l-60.19,34.75a6.29,6.29,0,0,0-1.85,1.8,6.23,6.23,0,0,0-1.07,2.46L314,169a1.76,1.76,0,0,0,.72,1.93c.4.24,4,2.33,4.59,2.65a2,2,0,0,0,1.57.1l10-2.88.64-.15a5.12,5.12,0,0,1,.18,1.91l-8,101.78c-.45,5.68-4.59,13.05-9.21,16.39L287.9,309.89a5.32,5.32,0,0,0-1.94,4.52l3.9,29.25a2,2,0,0,0,.91,1.54l4.58,2.64a1.93,1.93,0,0,0,1.94-.13l16.07-9.28a2.3,2.3,0,0,1,.32-.15,1.66,1.66,0,0,1,0,.22l4.34,112.59a1.8,1.8,0,0,0,.79,1.59l4.57,2.65a1.79,1.79,0,0,0,1.8-.17L404,409.67a5.51,5.51,0,0,0,2.48-4.29Z" style="fill:#fff;opacity:0.7000000000000001"></path><path d="M404.86,131.87l-15.35-22.16a3.17,3.17,0,0,0-4.12-.92l-60.18,34.74a6.3,6.3,0,0,0-1.85,1.8,6.09,6.09,0,0,0-1.07,2.46l-3.77,23.9a1.69,1.69,0,0,0,2.31,2l10-2.88c3.23-.93,5.66,1,5.4,4.4L328.2,277c-.45,5.68-4.6,13.06-9.21,16.39l-26.51,19.13a5.26,5.26,0,0,0-1.94,4.51l3.89,29.25a1.79,1.79,0,0,0,2.86,1.41l16.07-9.28c2.6-1.5,4.81-.28,4.93,2.71l4.34,112.59a1.58,1.58,0,0,0,2.58,1.43l2.17-1.25L404,409.67a5.51,5.51,0,0,0,2.48-4.29V137.08A10.82,10.82,0,0,0,404.86,131.87Z" style="fill:#455a64"></path><path d="M404.86,131.87l-4.4-6.34L350.65,298.1l32.57-26.84L341.34,376l31.2-26.07-30.85,95.72,62.32-36a5.51,5.51,0,0,0,2.48-4.29V137.08A10.82,10.82,0,0,0,404.86,131.87Z" style="fill:#A11818"></path><polygon points="398.78 123.1 346.4 304.57 377.77 278.72 335.85 383.58 367.93 356.77 338.73 447.36 344.65 443.94 377.15 343.09 346.84 368.42 388.67 263.8 354.9 291.62 402.15 127.96 398.78 123.1" style="fill:#fff"></polygon><path d="M245.28,256.8a4.82,4.82,0,0,1,2.43.56c1.37.8,1.45,2.14.18,3a4.45,4.45,0,0,1-2.36.68,4.82,4.82,0,0,1-2.43-.56c-1.37-.8-1.45-2.14-.18-3a4.45,4.45,0,0,1,2.36-.68m-.05-.74a5.2,5.2,0,0,0-2.7.79,2.42,2.42,0,0,0-1.19,2.16,2.68,2.68,0,0,0,1.46,2.1,5.37,5.37,0,0,0,2.78.66,5.2,5.2,0,0,0,2.7-.79,2.42,2.42,0,0,0,1.19-2.16,2.68,2.68,0,0,0-1.46-2.1,5.37,5.37,0,0,0-2.78-.66Z" style="fill:#263238"></path><path d="M246.3,256.88a5.54,5.54,0,0,0-2,0l-2.38.06.13,2h0a1.9,1.9,0,0,0,1.08,1.47,4.92,4.92,0,0,0,4.79-.11,1.73,1.73,0,0,0,.9-1.51h0l-.12-2Z" style="fill:#e0e0e0"></path><path d="M243,258.45a4.92,4.92,0,0,0,4.79-.11c1.27-.86,1.18-2.19-.19-3a5,5,0,0,0-4.79.11C241.52,256.32,241.6,257.66,243,258.45Z" style="fill:#fafafa"></path><path d="M235.54,251.85a4.71,4.71,0,0,1,2.43.56c1.37.79,1.45,2.13.18,3a4.45,4.45,0,0,1-2.36.68,4.72,4.72,0,0,1-2.43-.57c-1.37-.79-1.45-2.13-.18-3a4.44,4.44,0,0,1,2.36-.67m0-.74a5.1,5.1,0,0,0-2.7.78,2.44,2.44,0,0,0-1.19,2.17,2.69,2.69,0,0,0,1.46,2.1,5.37,5.37,0,0,0,2.78.65,5.1,5.1,0,0,0,2.7-.78,2.44,2.44,0,0,0,1.19-2.17,2.66,2.66,0,0,0-1.46-2.09,5.37,5.37,0,0,0-2.78-.66Z" style="fill:#263238"></path><path d="M236.56,251.93a5.33,5.33,0,0,0-2,0l-2.38.05.13,2h0a1.91,1.91,0,0,0,1.08,1.48,5,5,0,0,0,4.79-.11,1.75,1.75,0,0,0,.9-1.52h0l-.13-2Z" style="fill:#e0e0e0"></path><path d="M233.24,253.5a5,5,0,0,0,4.79-.11c1.27-.86,1.18-2.2-.19-3a4.92,4.92,0,0,0-4.79.11C231.78,251.37,231.86,252.71,233.24,253.5Z" style="fill:#fafafa"></path><path d="M224.09,250.83a4.71,4.71,0,0,1,2.43.56c1.37.8,1.45,2.13.18,3a4.45,4.45,0,0,1-2.36.68,4.72,4.72,0,0,1-2.43-.57c-1.37-.79-1.45-2.13-.18-3a4.44,4.44,0,0,1,2.36-.67m-.05-.74a5.19,5.19,0,0,0-2.7.78,2.44,2.44,0,0,0-1.19,2.17,2.68,2.68,0,0,0,1.46,2.1,5.37,5.37,0,0,0,2.78.65,5.1,5.1,0,0,0,2.7-.78,2.43,2.43,0,0,0,1.19-2.16,2.68,2.68,0,0,0-1.46-2.1,5.37,5.37,0,0,0-2.78-.66Z" style="fill:#263238"></path><path d="M225.11,250.91a5.33,5.33,0,0,0-2,0l-2.38.05.13,2h0a1.9,1.9,0,0,0,1.08,1.48,5,5,0,0,0,4.79-.11,1.75,1.75,0,0,0,.9-1.52h0l-.12-2Z" style="fill:#e0e0e0"></path><path d="M221.79,252.48a4.92,4.92,0,0,0,4.79-.11c1.27-.86,1.18-2.2-.19-3a4.92,4.92,0,0,0-4.79.11C220.33,250.35,220.41,251.69,221.79,252.48Z" style="fill:#fafafa"></path><path d="M236.46,263.72a4.77,4.77,0,0,1,2.43.56c1.38.8,1.46,2.14.19,3a4.56,4.56,0,0,1-2.36.67,4.82,4.82,0,0,1-2.43-.56c-1.37-.8-1.46-2.14-.19-3a4.5,4.5,0,0,1,2.36-.68m0-.73a5.08,5.08,0,0,0-2.7.78,2.46,2.46,0,0,0-1.2,2.16A2.71,2.71,0,0,0,234,268a5.37,5.37,0,0,0,2.78.66,5,5,0,0,0,2.69-.79,2.42,2.42,0,0,0,1.2-2.16,2.69,2.69,0,0,0-1.47-2.1,5.24,5.24,0,0,0-2.77-.65Z" style="fill:#263238"></path><path d="M237.48,263.8a5.28,5.28,0,0,0-2,.05l-2.38,0,.12,2h0a1.94,1.94,0,0,0,1.09,1.47,4.92,4.92,0,0,0,4.79-.11,1.75,1.75,0,0,0,.9-1.51h0l-.13-2Z" style="fill:#A11818"></path><path d="M237.48,263.8a5.28,5.28,0,0,0-2,.05l-2.38,0,.12,2h0a1.94,1.94,0,0,0,1.09,1.47,4.92,4.92,0,0,0,4.79-.11,1.75,1.75,0,0,0,.9-1.51h0l-.13-2Z" style="opacity:0.2"></path><path d="M234.16,265.37a4.92,4.92,0,0,0,4.79-.11c1.27-.85,1.19-2.19-.18-3a5,5,0,0,0-4.79.11C232.71,263.24,232.79,264.58,234.16,265.37Z" style="fill:#A11818"></path><path d="M226.72,258.77a4.67,4.67,0,0,1,2.43.56c1.38.8,1.46,2.13.19,3A4.47,4.47,0,0,1,227,263a4.7,4.7,0,0,1-2.43-.57c-1.37-.79-1.46-2.13-.19-3a4.5,4.5,0,0,1,2.36-.67m0-.74a5.14,5.14,0,0,0-2.7.78,2.47,2.47,0,0,0-1.2,2.17,2.73,2.73,0,0,0,1.47,2.1,5.37,5.37,0,0,0,2.78.65,5,5,0,0,0,2.69-.78,2.44,2.44,0,0,0,1.2-2.16,2.67,2.67,0,0,0-1.47-2.1,5.34,5.34,0,0,0-2.77-.66Z" style="fill:#263238"></path><path d="M227.74,258.85a5.28,5.28,0,0,0-2,0l-2.38.05.12,2h0a1.94,1.94,0,0,0,1.09,1.48,5,5,0,0,0,4.79-.11,1.77,1.77,0,0,0,.9-1.52h0l-.13-2Z" style="fill:#A11818"></path><path d="M227.74,258.85a5.28,5.28,0,0,0-2,0l-2.38.05.12,2h0a1.94,1.94,0,0,0,1.09,1.48,5,5,0,0,0,4.79-.11,1.77,1.77,0,0,0,.9-1.52h0l-.13-2Z" style="opacity:0.2"></path><path d="M224.42,260.42a4.92,4.92,0,0,0,4.79-.11c1.27-.86,1.19-2.2-.18-3a4.92,4.92,0,0,0-4.79.11C223,258.29,223.05,259.63,224.42,260.42Z" style="fill:#A11818"></path><path d="M224.86,236.67a4.67,4.67,0,0,1,2.43.57c1.38.79,1.46,2.13.19,3a4.47,4.47,0,0,1-2.36.67,4.69,4.69,0,0,1-2.43-.56c-1.37-.79-1.46-2.13-.19-3a4.47,4.47,0,0,1,2.36-.68m0-.73a5,5,0,0,0-2.7.78,2.47,2.47,0,0,0-1.2,2.17,2.67,2.67,0,0,0,1.47,2.09,5.35,5.35,0,0,0,2.78.66,5,5,0,0,0,2.69-.78,2.45,2.45,0,0,0,1.2-2.17,2.7,2.7,0,0,0-1.47-2.1,5.33,5.33,0,0,0-2.77-.65Z" style="fill:#263238"></path><path d="M225.88,236.75a5.28,5.28,0,0,0-2,.05l-2.38,0,.12,2h0a1.93,1.93,0,0,0,1.09,1.48,4.94,4.94,0,0,0,4.79-.12,1.74,1.74,0,0,0,.9-1.51h0l-.13-2Z" style="fill:#37474f"></path><path d="M227.35,238.21c1.27-.85,1.19-2.19-.19-3a4.94,4.94,0,0,0-4.79.12c-1.27.85-1.18,2.19.19,3a4.94,4.94,0,0,0,4.79-.12" style="fill:#455a64"></path><path d="M227.35,238.21a1.63,1.63,0,0,0,.77-1.83,2.46,2.46,0,0,0-1.56-1.32,4.89,4.89,0,0,0-4.11.4,1.52,1.52,0,0,0-.78,1.69,2.44,2.44,0,0,0,1.5,1.34,5,5,0,0,0,4.18-.28,4.88,4.88,0,0,1-4.26.49,2.62,2.62,0,0,1-1.67-1.47,1.79,1.79,0,0,1,.87-2,5,5,0,0,1,4.34-.36,2.59,2.59,0,0,1,1.62,1.48A1.68,1.68,0,0,1,227.35,238.21Z" style="fill:#37474f"></path><path d="M215.27,257.75a4.77,4.77,0,0,1,2.43.56c1.38.8,1.46,2.14.19,3a4.47,4.47,0,0,1-2.36.68,4.79,4.79,0,0,1-2.43-.56c-1.37-.8-1.46-2.14-.19-3a4.5,4.5,0,0,1,2.36-.68m0-.74a5.08,5.08,0,0,0-2.7.79,2.44,2.44,0,0,0-1.2,2.16,2.71,2.71,0,0,0,1.47,2.1,5.27,5.27,0,0,0,2.78.65,5,5,0,0,0,2.69-.78,2.44,2.44,0,0,0,1.2-2.16,2.69,2.69,0,0,0-1.47-2.1,5.34,5.34,0,0,0-2.77-.66Z" style="fill:#263238"></path><path d="M216.29,257.83a5.28,5.28,0,0,0-2,0l-2.38.06.12,2h0a1.94,1.94,0,0,0,1.09,1.48,4.92,4.92,0,0,0,4.79-.11,1.77,1.77,0,0,0,.9-1.52h0l-.13-2Z" style="fill:#A11818"></path><path d="M216.29,257.83a5.28,5.28,0,0,0-2,0l-2.38.06.12,2h0a1.94,1.94,0,0,0,1.09,1.48,4.92,4.92,0,0,0,4.79-.11,1.77,1.77,0,0,0,.9-1.52h0l-.13-2Z" style="opacity:0.2"></path><path d="M213,259.4a4.92,4.92,0,0,0,4.79-.11c1.27-.86,1.19-2.2-.18-3a5,5,0,0,0-4.79.11C211.52,257.27,211.6,258.61,213,259.4Z" style="fill:#A11818"></path><path d="M206.51,250.68a9.33,9.33,0,0,0-3.61.08l-4.25.09.07,1.21h0a3.45,3.45,0,0,0,1.94,2.64,8.83,8.83,0,0,0,8.55-.21,3.09,3.09,0,0,0,1.6-2.7h0l-.07-1.21Z" style="fill:#A11818"></path><path d="M206.51,250.68a9.33,9.33,0,0,0-3.61.08l-4.25.09.07,1.21h0a3.45,3.45,0,0,0,1.94,2.64,8.83,8.83,0,0,0,8.55-.21,3.09,3.09,0,0,0,1.6-2.7h0l-.07-1.21Z" style="opacity:0.2"></path><path d="M200.58,253.49a8.85,8.85,0,0,0,8.56-.21c2.26-1.53,2.11-3.92-.34-5.33a8.81,8.81,0,0,0-8.55.2C198,249.68,198.13,252.07,200.58,253.49Z" style="fill:#A11818"></path><path d="M204.57,239.6a2.2,2.2,0,0,0-.81,0l-1,0,.68,10.72h0a.74.74,0,0,0,.43.59,2,2,0,0,0,1.93,0,.74.74,0,0,0,.36-.61h0l-.68-10.72Z" style="fill:#f5f5f5"></path><path d="M203.76,239.62l-1,0,.12,2a3.47,3.47,0,0,0,1.32.24,3,3,0,0,0,1.4-.37l-.12-1.9-1,0A2.2,2.2,0,0,0,203.76,239.62Z" style="opacity:0.1"></path><path d="M209.17,235.74a5,5,0,1,1-4.95-5A5,5,0,0,1,209.17,235.74Z" style="fill:#A11818"></path><path d="M204.31,237.71c-3.06-.78-4.28-3.81-3.18-5.81a4.9,4.9,0,0,0-1.87,3.84,5,5,0,1,0,9.91,0C209.25,236.58,207.38,238.5,204.31,237.71Z" style="opacity:0.1"></path><path d="M203.18,232.36a.78.78,0,0,0,.29.7,3.29,3.29,0,0,0,.68.4,5.23,5.23,0,0,1,1.72,1.45c.32.41.61.9,1.11,1.07a.58.58,0,0,0,.53,0,.69.69,0,0,0,.24-.41,3.34,3.34,0,0,0-2.63-3.94C204.52,231.47,203.33,231.6,203.18,232.36Z" style="fill:#fff;opacity:0.7000000000000001"></path><path d="M301,289a4.7,4.7,0,0,1,2.43.57c1.37.79,1.46,2.13.19,3a4.59,4.59,0,0,1-2.36.67,4.77,4.77,0,0,1-2.43-.56c-1.38-.8-1.46-2.14-.19-3A4.47,4.47,0,0,1,301,289m0-.73a5,5,0,0,0-2.69.78,2.44,2.44,0,0,0-1.2,2.16,2.69,2.69,0,0,0,1.47,2.1,5.34,5.34,0,0,0,2.77.66,5.05,5.05,0,0,0,2.7-.79,2.44,2.44,0,0,0,1.2-2.16,2.71,2.71,0,0,0-1.47-2.1,5.37,5.37,0,0,0-2.78-.65Z" style="fill:#263238"></path><path d="M302,289.06a5.27,5.27,0,0,0-2,.05l-2.39.05.13,2h0a1.91,1.91,0,0,0,1.09,1.47,4.92,4.92,0,0,0,4.79-.11,1.74,1.74,0,0,0,.89-1.51h0l-.12-2Z" style="fill:#e0e0e0"></path><path d="M298.72,290.63a4.92,4.92,0,0,0,4.79-.11c1.27-.85,1.19-2.19-.19-3a5,5,0,0,0-4.79.11C297.26,288.5,297.35,289.84,298.72,290.63Z" style="fill:#fafafa"></path><path d="M291.28,284a4.71,4.71,0,0,1,2.43.56c1.37.8,1.46,2.13.19,3a4.5,4.5,0,0,1-2.36.68,4.67,4.67,0,0,1-2.43-.57c-1.38-.79-1.46-2.13-.19-3a4.47,4.47,0,0,1,2.36-.67m0-.74a5.13,5.13,0,0,0-2.69.78,2.45,2.45,0,0,0-1.2,2.17,2.69,2.69,0,0,0,1.47,2.1,5.33,5.33,0,0,0,2.77.65,5.08,5.08,0,0,0,2.7-.78,2.46,2.46,0,0,0,1.2-2.16A2.7,2.7,0,0,0,294,284a5.37,5.37,0,0,0-2.78-.66Z" style="fill:#263238"></path><path d="M292.3,284.11a5.28,5.28,0,0,0-2,0l-2.39.05.13,2h0a1.91,1.91,0,0,0,1.09,1.48,5,5,0,0,0,4.78-.11,1.75,1.75,0,0,0,.9-1.52h0l-.12-2Z" style="fill:#e0e0e0"></path><path d="M289,285.68a4.92,4.92,0,0,0,4.79-.11c1.27-.86,1.19-2.2-.19-3a4.92,4.92,0,0,0-4.79.11C287.52,283.55,287.6,284.89,289,285.68Z" style="fill:#fafafa"></path><path d="M279.83,283a4.79,4.79,0,0,1,2.43.56c1.37.8,1.46,2.14.19,3a4.5,4.5,0,0,1-2.36.68,4.77,4.77,0,0,1-2.43-.56c-1.38-.8-1.46-2.14-.19-3a4.47,4.47,0,0,1,2.36-.68m-.05-.74a5,5,0,0,0-2.69.79,2.42,2.42,0,0,0-1.2,2.16,2.69,2.69,0,0,0,1.47,2.1,5.24,5.24,0,0,0,2.77.65,5.08,5.08,0,0,0,2.7-.78A2.46,2.46,0,0,0,284,285a2.71,2.71,0,0,0-1.47-2.1,5.37,5.37,0,0,0-2.78-.66Z" style="fill:#263238"></path><path d="M280.85,283.09a5.28,5.28,0,0,0-2,0l-2.39.06.13,2h0a1.91,1.91,0,0,0,1.09,1.48,4.92,4.92,0,0,0,4.79-.11,1.75,1.75,0,0,0,.89-1.51h0l-.12-2Z" style="fill:#e0e0e0"></path><path d="M277.53,284.66a4.92,4.92,0,0,0,4.79-.11c1.27-.86,1.19-2.2-.19-3a5,5,0,0,0-4.79.11C276.07,282.53,276.16,283.87,277.53,284.66Z" style="fill:#fafafa"></path><path d="M292.21,295.9a4.72,4.72,0,0,1,2.43.57c1.37.79,1.45,2.13.18,3a4.44,4.44,0,0,1-2.36.67,4.71,4.71,0,0,1-2.43-.56c-1.37-.8-1.45-2.13-.18-3a4.45,4.45,0,0,1,2.36-.68m0-.73a5.1,5.1,0,0,0-2.7.78,2.43,2.43,0,0,0-1.19,2.16,2.66,2.66,0,0,0,1.46,2.1,5.37,5.37,0,0,0,2.78.66,5.19,5.19,0,0,0,2.7-.78,2.44,2.44,0,0,0,1.19-2.17,2.69,2.69,0,0,0-1.46-2.1,5.37,5.37,0,0,0-2.78-.65Z" style="fill:#263238"></path><path d="M293.23,296a5.33,5.33,0,0,0-2,0l-2.38.05.13,2h0a1.88,1.88,0,0,0,1.08,1.47,4.92,4.92,0,0,0,4.79-.11,1.73,1.73,0,0,0,.9-1.51h0l-.13-2Z" style="fill:#A11818"></path><path d="M293.23,296a5.33,5.33,0,0,0-2,0l-2.38.05.13,2h0a1.88,1.88,0,0,0,1.08,1.47,4.92,4.92,0,0,0,4.79-.11,1.73,1.73,0,0,0,.9-1.51h0l-.13-2Z" style="opacity:0.2"></path><path d="M289.91,297.56a4.94,4.94,0,0,0,4.79-.12c1.27-.85,1.18-2.19-.19-3a4.94,4.94,0,0,0-4.79.12C288.45,295.42,288.53,296.76,289.91,297.56Z" style="fill:#A11818"></path><path d="M282.47,291a4.82,4.82,0,0,1,2.43.56c1.37.8,1.45,2.14.18,3a4.45,4.45,0,0,1-2.36.68,4.82,4.82,0,0,1-2.43-.56c-1.37-.8-1.46-2.14-.18-3a4.45,4.45,0,0,1,2.36-.68m-.05-.74a5.11,5.11,0,0,0-2.7.79,2.41,2.41,0,0,0-1.19,2.16,2.68,2.68,0,0,0,1.46,2.1,5.27,5.27,0,0,0,2.78.65,5.1,5.1,0,0,0,2.7-.78,2.43,2.43,0,0,0,1.19-2.16,2.68,2.68,0,0,0-1.46-2.1,5.37,5.37,0,0,0-2.78-.66Z" style="fill:#263238"></path><path d="M283.49,291a5.33,5.33,0,0,0-2,0l-2.38.06.13,2h0a1.9,1.9,0,0,0,1.08,1.48,4.94,4.94,0,0,0,4.79-.11A1.77,1.77,0,0,0,286,293h0l-.13-2Z" style="fill:#A11818"></path><path d="M283.49,291a5.33,5.33,0,0,0-2,0l-2.38.06.13,2h0a1.9,1.9,0,0,0,1.08,1.48,4.94,4.94,0,0,0,4.79-.11A1.77,1.77,0,0,0,286,293h0l-.13-2Z" style="opacity:0.2"></path><path d="M280.17,292.6a4.92,4.92,0,0,0,4.79-.11c1.27-.86,1.18-2.2-.19-3a4.94,4.94,0,0,0-4.79.11C278.71,290.47,278.79,291.81,280.17,292.6Z" style="fill:#A11818"></path><path d="M280.6,268.86a4.67,4.67,0,0,1,2.43.56c1.38.79,1.46,2.13.19,3a4.44,4.44,0,0,1-2.36.67,4.71,4.71,0,0,1-2.43-.56c-1.37-.79-1.46-2.13-.19-3a4.5,4.5,0,0,1,2.36-.67m0-.74a5.08,5.08,0,0,0-2.7.78,2.47,2.47,0,0,0-1.2,2.17,2.73,2.73,0,0,0,1.47,2.1,5.47,5.47,0,0,0,2.78.65,5,5,0,0,0,2.69-.78,2.45,2.45,0,0,0,1.2-2.17,2.69,2.69,0,0,0-1.46-2.1,5.47,5.47,0,0,0-2.78-.65Z" style="fill:#263238"></path><path d="M281.63,268.93a5.54,5.54,0,0,0-2,.05l-2.38,0,.12,2h0a1.91,1.91,0,0,0,1.08,1.48,4.94,4.94,0,0,0,4.79-.12,1.74,1.74,0,0,0,.9-1.51h0l-.13-2Z" style="fill:#37474f"></path><path d="M283.09,270.4c1.28-.86,1.19-2.2-.18-3a4.92,4.92,0,0,0-4.79.11c-1.27.85-1.19,2.19.19,3a5,5,0,0,0,4.78-.11" style="fill:#455a64"></path><path d="M283.09,270.4a1.63,1.63,0,0,0,.77-1.84,2.46,2.46,0,0,0-1.56-1.32,4.87,4.87,0,0,0-4.1.4,1.51,1.51,0,0,0-.79,1.69,2.44,2.44,0,0,0,1.5,1.34,5.05,5.05,0,0,0,4.18-.27,4.89,4.89,0,0,1-4.25.48,2.61,2.61,0,0,1-1.68-1.47,1.79,1.79,0,0,1,.88-2,5,5,0,0,1,4.34-.36,2.59,2.59,0,0,1,1.61,1.48A1.7,1.7,0,0,1,283.09,270.4Z" style="fill:#37474f"></path><path d="M271,289.93a4.82,4.82,0,0,1,2.43.56c1.37.8,1.45,2.14.18,3a4.45,4.45,0,0,1-2.36.68,4.82,4.82,0,0,1-2.43-.56c-1.37-.8-1.45-2.14-.18-3a4.45,4.45,0,0,1,2.36-.68m0-.74a5.2,5.2,0,0,0-2.7.79,2.43,2.43,0,0,0-1.19,2.16,2.68,2.68,0,0,0,1.46,2.1,5.37,5.37,0,0,0,2.78.66,5.2,5.2,0,0,0,2.7-.79,2.42,2.42,0,0,0,1.19-2.16,2.68,2.68,0,0,0-1.46-2.1,5.37,5.37,0,0,0-2.78-.66Z" style="fill:#263238"></path><path d="M272,290a5.54,5.54,0,0,0-2,0l-2.38.06.13,2h0a1.9,1.9,0,0,0,1.08,1.47,4.92,4.92,0,0,0,4.79-.11,1.73,1.73,0,0,0,.9-1.51h0l-.13-2Z" style="fill:#A11818"></path><path d="M272,290a5.54,5.54,0,0,0-2,0l-2.38.06.13,2h0a1.9,1.9,0,0,0,1.08,1.47,4.92,4.92,0,0,0,4.79-.11,1.73,1.73,0,0,0,.9-1.51h0l-.13-2Z" style="opacity:0.2"></path><path d="M268.72,291.58a4.92,4.92,0,0,0,4.79-.11c1.27-.86,1.18-2.19-.19-3a5,5,0,0,0-4.79.11C267.26,289.45,267.34,290.79,268.72,291.58Z" style="fill:#A11818"></path><path d="M262.26,282.86a9.38,9.38,0,0,0-3.62.08l-4.25.09.07,1.21h0a3.45,3.45,0,0,0,1.94,2.64,8.81,8.81,0,0,0,8.55-.2,3.15,3.15,0,0,0,1.61-2.71h0l-.08-1.21Z" style="fill:#A11818"></path><path d="M262.26,282.86a9.38,9.38,0,0,0-3.62.08l-4.25.09.07,1.21h0a3.45,3.45,0,0,0,1.94,2.64,8.81,8.81,0,0,0,8.55-.2,3.15,3.15,0,0,0,1.61-2.71h0l-.08-1.21Z" style="opacity:0.2"></path><path d="M256.33,285.67a8.81,8.81,0,0,0,8.55-.2c2.27-1.53,2.12-3.92-.34-5.34a8.81,8.81,0,0,0-8.55.2C253.72,281.86,253.87,284.25,256.33,285.67Z" style="fill:#A11818"></path><path d="M260.31,271.79a2.2,2.2,0,0,0-.81,0l-1,0,.68,10.72h0a.76.76,0,0,0,.43.59,2,2,0,0,0,1.93,0,.71.71,0,0,0,.36-.61h0l-.68-10.72Z" style="fill:#f5f5f5"></path><path d="M259.5,271.8l-1,0,.13,2A3.39,3.39,0,0,0,260,274a3,3,0,0,0,1.4-.37l-.12-1.9-.95,0A2.2,2.2,0,0,0,259.5,271.8Z" style="opacity:0.1"></path><path d="M264.92,267.92a5,5,0,1,1-5-4.95A5,5,0,0,1,264.92,267.92Z" style="fill:#A11818"></path><path d="M260.05,269.9c-3.05-.79-4.28-3.81-3.18-5.82a4.94,4.94,0,0,0,3.09,8.8,5,5,0,0,0,5-5C265,268.76,263.12,270.68,260.05,269.9Z" style="opacity:0.1"></path><path d="M258.92,264.54a.78.78,0,0,0,.29.7,3.62,3.62,0,0,0,.68.41,5.08,5.08,0,0,1,1.72,1.44c.32.41.62.9,1.11,1.07a.6.6,0,0,0,.54,0,.68.68,0,0,0,.23-.4,3.32,3.32,0,0,0-2.62-3.94C260.26,263.65,259.07,263.79,258.92,264.54Z" style="fill:#fff;opacity:0.7000000000000001"></path></g></g><g id="freepik--Sparkles--inject-99"><g id="freepik--sparkles--inject-99"><path d="M348,67.81a.7.7,0,0,1-.79-.54l-.15-.67a3.58,3.58,0,0,0-3.75-2.77l-.68.05a.69.69,0,0,1-.74-.59.7.7,0,0,1,.53-.79l.67-.15h0a3.56,3.56,0,0,0,2.77-3.75l-.05-.68a.7.7,0,0,1,1.38-.2l.15.66a3.56,3.56,0,0,0,3.75,2.77l.68,0a.7.7,0,0,1,.2,1.38l-.66.16a3.55,3.55,0,0,0-2.77,3.74l0,.68A.7.7,0,0,1,348,67.81Zm-2.6-5.05a5,5,0,0,1,2.07,1.53A5,5,0,0,1,349,62.22a4.91,4.91,0,0,1-2.07-1.53A4.93,4.93,0,0,1,345.4,62.76Z" style="fill:#e0e0e0"></path><path d="M468.81,372.42a.7.7,0,0,1-.65-.7V371a3.55,3.55,0,0,0-3-3.53l-.67-.1a.7.7,0,0,1,.1-1.39h.69a3.56,3.56,0,0,0,3.53-3l.1-.68a.7.7,0,0,1,1.39.11v.68a3.57,3.57,0,0,0,3,3.53l.68.1a.7.7,0,0,1-.11,1.39h-.68a3.55,3.55,0,0,0-3.53,3l-.1.68A.7.7,0,0,1,468.81,372.42Zm-1.41-5.49a5,5,0,0,1,1.68,1.95A5,5,0,0,1,471,367.2a5,5,0,0,1-1.68-1.95A5,5,0,0,1,467.4,366.93Z" style="fill:#e0e0e0"></path><path d="M214,42.78a.7.7,0,0,1-.78-.54l-.16-.67a3.54,3.54,0,0,0-3.74-2.76l-.68,0a.71.71,0,0,1-.74-.6.7.7,0,0,1,.53-.79l.67-.15h0a3.56,3.56,0,0,0,2.77-3.74l-.05-.68a.7.7,0,0,1,1.38-.21l.15.66a3.55,3.55,0,0,0,3.75,2.77l.68,0a.71.71,0,0,1,.74.6.7.7,0,0,1-.54.79l-.66.15a3.56,3.56,0,0,0-2.77,3.74l.05.68A.7.7,0,0,1,214,42.78Zm-2.59-5.05a5,5,0,0,1,2.07,1.53A4.88,4.88,0,0,1,215,37.2a5,5,0,0,1-2.07-1.53A5,5,0,0,1,211.37,37.73Z" style="fill:#e0e0e0"></path><path d="M53,31.14a.71.71,0,0,1-.79-.54l-.15-.67a3.55,3.55,0,0,0-3.74-2.76l-.68,0a.72.72,0,0,1-.75-.6.71.71,0,0,1,.54-.79l.66-.15h0a3.55,3.55,0,0,0,2.77-3.75l0-.67a.72.72,0,0,1,.6-.75.71.71,0,0,1,.79.54l.15.66a3.55,3.55,0,0,0,3.74,2.77l.68-.05a.72.72,0,0,1,.75.6.71.71,0,0,1-.54.79l-.66.15a3.55,3.55,0,0,0-2.77,3.74l0,.68A.71.71,0,0,1,53,31.14Zm-2.59-5.05a5.06,5.06,0,0,1,2.07,1.53A4.89,4.89,0,0,1,54,25.55,4.77,4.77,0,0,1,52,24,4.93,4.93,0,0,1,50.42,26.09Z" style="fill:#e0e0e0"></path><path d="M37.77,234.81a.7.7,0,0,1-.79-.54l-.15-.66a3.55,3.55,0,0,0-3.75-2.77l-.68,0a.69.69,0,0,1-.74-.6.71.71,0,0,1,.54-.79l.66-.15h0a3.55,3.55,0,0,0,2.77-3.74l-.05-.68a.7.7,0,0,1,1.38-.21l.16.67a3.54,3.54,0,0,0,3.74,2.76l.68-.05a.7.7,0,0,1,.21,1.39l-.67.15a3.57,3.57,0,0,0-2.77,3.75l0,.67A.7.7,0,0,1,37.77,234.81Zm-2.6-5a4.77,4.77,0,0,1,2.07,1.53,4.93,4.93,0,0,1,1.53-2.07,5.06,5.06,0,0,1-2.07-1.53A5,5,0,0,1,35.17,229.77Z" style="fill:#e0e0e0"></path><path d="M457.69,52.16a.7.7,0,0,1-.79-.54l-.15-.66A3.55,3.55,0,0,0,453,48.19l-.68.05a.69.69,0,0,1-.74-.6.71.71,0,0,1,.54-.79l.66-.15h0A3.55,3.55,0,0,0,455.55,43l-.05-.68a.7.7,0,0,1,1.38-.21l.16.67a3.54,3.54,0,0,0,3.74,2.76l.68,0a.7.7,0,0,1,.21,1.39L461,47a3.57,3.57,0,0,0-2.77,3.74l0,.68A.7.7,0,0,1,457.69,52.16Zm-2.6-5a4.77,4.77,0,0,1,2.07,1.53,4.93,4.93,0,0,1,1.53-2.07,5.06,5.06,0,0,1-2.07-1.53A5,5,0,0,1,455.09,47.12Z" style="fill:#e0e0e0"></path><path d="M37.77,101.08a.69.69,0,0,1-.79-.54l-.15-.66a3.56,3.56,0,0,0-3.75-2.77l-.68,0a.7.7,0,0,1-.2-1.38l.66-.16h0a3.55,3.55,0,0,0,2.77-3.74l-.05-.68A.7.7,0,0,1,37,91l.16.67a3.56,3.56,0,0,0,3.74,2.77l.68-.05a.7.7,0,0,1,.75.59.71.71,0,0,1-.54.79l-.67.15a3.57,3.57,0,0,0-2.77,3.75l0,.68A.69.69,0,0,1,37.77,101.08Zm-2.6-5a4.85,4.85,0,0,1,2.07,1.53,5,5,0,0,1,1.53-2.07A5.06,5.06,0,0,1,36.7,94,4.91,4.91,0,0,1,35.17,96Z" style="fill:#e0e0e0"></path><path d="M89.75,189.88a.69.69,0,0,1-.79-.54l-.15-.66a3.56,3.56,0,0,0-3.75-2.77l-.68.05a.69.69,0,0,1-.74-.6.71.71,0,0,1,.53-.79l.67-.15h0a3.55,3.55,0,0,0,2.77-3.74l0-.68a.7.7,0,0,1,1.38-.21l.15.67a3.56,3.56,0,0,0,3.75,2.76l.68,0a.69.69,0,0,1,.74.59.7.7,0,0,1-.54.79l-.66.15a3.56,3.56,0,0,0-2.77,3.75l0,.67A.7.7,0,0,1,89.75,189.88Zm-2.6-5a4.91,4.91,0,0,1,2.07,1.53,4.93,4.93,0,0,1,1.53-2.07,5,5,0,0,1-2.07-1.53A5.06,5.06,0,0,1,87.15,184.84Z" style="fill:#e0e0e0"></path></g></g><g id="freepik--life-bar--inject-99"><g id="freepik--life-bar--inject-99"><path d="M383.37,62.89c-3.46-2-6.26-.38-6.26,3.62a13.83,13.83,0,0,0,6.26,10.84c3.46,2,6.26.38,6.26-3.62A13.83,13.83,0,0,0,383.37,62.89Z" style="fill:#A11818"></path><path d="M379.75,66.86a2.43,2.43,0,0,1,.44-1.57h0a1,1,0,0,1,1.32-.16c.91.51,1.66,2.46,1.78,3.87.11-1.28.84-2.39,1.75-1.87a3.62,3.62,0,0,1,1.33,1.66v0h0a5.47,5.47,0,0,1,.46,2.07c0,2.16-1.29,2.62-2.37,3.42l-1.15.84L382.16,73C381.06,71,379.76,69,379.75,66.86Z" style="fill:#fafafa"></path><path d="M400.07,72.55c-3.46-2-6.26-.37-6.26,3.62A13.83,13.83,0,0,0,400.07,87c3.46,2,6.26.38,6.26-3.61A13.84,13.84,0,0,0,400.07,72.55Z" style="fill:#A11818"></path><path d="M396.45,76.52a2.43,2.43,0,0,1,.44-1.57h0a1,1,0,0,1,1.32-.17c.91.51,1.66,2.46,1.78,3.87.1-1.28.84-2.38,1.75-1.87a3.54,3.54,0,0,1,1.32,1.66v0h0a5.28,5.28,0,0,1,.45,2.07c0,2.16-1.28,2.62-2.37,3.42l-1.14.84-1.15-2.14C397.76,80.61,396.46,78.68,396.45,76.52Z" style="fill:#fafafa"></path><path d="M416.77,82.22c-3.46-2-6.26-.38-6.26,3.61a13.82,13.82,0,0,0,6.26,10.84c3.46,2,6.26.38,6.26-3.61A13.82,13.82,0,0,0,416.77,82.22Z" style="fill:#A11818"></path><path d="M413.15,86.18a2.32,2.32,0,0,1,.44-1.56h0a1,1,0,0,1,1.32-.17c.9.51,1.66,2.46,1.77,3.87.11-1.28.85-2.38,1.75-1.87a3.54,3.54,0,0,1,1.33,1.67h0a5.28,5.28,0,0,1,.45,2.07c0,2.16-1.28,2.62-2.37,3.42l-1.14.84-1.15-2.14C414.46,90.27,413.16,88.34,413.15,86.18Z" style="fill:#fafafa"></path><path d="M433.47,91.88c-3.46-2-6.26-.38-6.26,3.61a13.82,13.82,0,0,0,6.26,10.84c3.45,2,6.26.38,6.26-3.61A13.85,13.85,0,0,0,433.47,91.88Z" style="fill:#A11818"></path><path d="M429.85,95.84a2.4,2.4,0,0,1,.43-1.56h0a1,1,0,0,1,1.32-.16c.9.5,1.65,2.45,1.77,3.86.11-1.28.85-2.38,1.75-1.87a3.54,3.54,0,0,1,1.33,1.67h0a5.28,5.28,0,0,1,.45,2.07c0,2.17-1.28,2.62-2.37,3.43l-1.14.83L432.26,102C431.16,99.94,429.85,98,429.85,95.84Z" style="fill:#fafafa"></path><path d="M450.17,101.54c-3.46-2-6.26-.38-6.26,3.61A13.84,13.84,0,0,0,450.17,116c3.45,2,6.26.37,6.26-3.62A13.85,13.85,0,0,0,450.17,101.54Z" style="fill:#e0e0e0"></path><path d="M446.54,105.5a2.46,2.46,0,0,1,.44-1.56h0a1,1,0,0,1,1.32-.16c.9.51,1.65,2.46,1.77,3.87.11-1.29.85-2.39,1.75-1.88a3.59,3.59,0,0,1,1.33,1.67h0a5.37,5.37,0,0,1,.46,2.07c0,2.17-1.29,2.63-2.37,3.43l-1.14.84L449,111.64C447.86,109.6,446.55,107.67,446.54,105.5Z" style="fill:#fff"></path><path d="M386.54,50.75c0,3.38-2.05,4.94-4.59,3.47s-4.59-5.39-4.59-8.77S379.42,40.52,382,42,386.54,47.37,386.54,50.75Z" style="fill:#A11818"></path><path d="M383.38,46.8c0,1.05-.64,1.53-1.43,1.08a3.45,3.45,0,0,1-1.42-2.73c0-1,.64-1.54,1.42-1.08A3.42,3.42,0,0,1,383.38,46.8Z" style="fill:#fafafa"></path><path d="M384.59,53v.26a2.32,2.32,0,0,1-2.64-.09,7.4,7.4,0,0,1-2.64-3V50c0-1.63,1-2.38,2.22-1.68l.84.49A5.3,5.3,0,0,1,384.59,53Z" style="fill:#fafafa"></path><path d="M391.46,59.24a7,7,0,0,1-.88-1.25,6.5,6.5,0,0,1-1-3.12v-1c0-1.75,1.19-2.43,2.7-1.56l46.94,27.13a6.65,6.65,0,0,1,2.23,2.39,6.55,6.55,0,0,1,1,3.13v1c0,1.75-1.19,2.43-2.7,1.56L392.8,60.39A5.41,5.41,0,0,1,391.46,59.24Zm49.13,22.34a3.39,3.39,0,0,0-.85-.72L392.8,53.74A1.35,1.35,0,0,0,390.59,55v1a3.56,3.56,0,0,0,.47,1.72A3.65,3.65,0,0,0,392.31,59l46.94,27.12c1.2.7,2.21.11,2.21-1.28v-1a3.55,3.55,0,0,0-.47-1.71A3.17,3.17,0,0,0,440.59,81.58Z" style="fill:#A11818"></path><g style="opacity:0.7000000000000001"><path d="M391.46,59.24a7,7,0,0,1-.88-1.25,6.5,6.5,0,0,1-1-3.12v-1c0-1.75,1.19-2.43,2.7-1.56l46.94,27.13a6.65,6.65,0,0,1,2.23,2.39,6.55,6.55,0,0,1,1,3.13v1c0,1.75-1.19,2.43-2.7,1.56L392.8,60.39A5.41,5.41,0,0,1,391.46,59.24Zm49.13,22.34a3.39,3.39,0,0,0-.85-.72L392.8,53.74A1.35,1.35,0,0,0,390.59,55v1a3.56,3.56,0,0,0,.47,1.72A3.65,3.65,0,0,0,392.31,59l46.94,27.12c1.2.7,2.21.11,2.21-1.28v-1a3.55,3.55,0,0,0-.47-1.71A3.17,3.17,0,0,0,440.59,81.58Z" style="fill:#fff"></path></g><path d="M427.86,75.66l-.64,1.86L392.81,57.57a1.77,1.77,0,0,1-.82-1.41v-.28c0-.53.37-.74.83-.47Z" style="fill:#A11818"></path><path d="M447.56,89.7a.24.24,0,0,1,.08.11.41.41,0,0,1,0,.16v.52a.17.17,0,0,1,0,.12.06.06,0,0,1-.08,0l-1.82-1a.24.24,0,0,1-.08-.11.41.41,0,0,1,0-.16V84.55a.17.17,0,0,1,0-.12.05.05,0,0,1,.08,0l.34.2s.05,0,.07.1a.32.32,0,0,1,0,.16v4Z" style="fill:#A11818"></path><path d="M448.36,91a.88.88,0,0,1-.05-.15L447.48,87a.43.43,0,0,1,0,0,.21.21,0,0,1,0-.12.06.06,0,0,1,.08,0l.31.19a.2.2,0,0,1,.09.11c0,.05,0,.1.05.14l.55,2.61.55-2,0-.09s.06,0,.1,0l.31.18a.26.26,0,0,1,.08.11.41.41,0,0,1,0,.16v0l-.84,2.92,0,.09s-.05,0-.1,0l-.27-.16A.2.2,0,0,1,448.36,91Z" style="fill:#A11818"></path><path d="M450.63,92.2a.23.23,0,0,1,0,.13.06.06,0,0,1-.08,0l-.31-.18a.24.24,0,0,1-.08-.11.42.42,0,0,1,0-.16V87.05a.21.21,0,0,1,0-.12.05.05,0,0,1,.08,0l.31.18a.21.21,0,0,1,.08.1.5.5,0,0,1,0,.16Z" style="fill:#A11818"></path><path d="M452.52,93.29a.07.07,0,0,1,0-.05s0,0,0,0l.55-1.08a1.51,1.51,0,0,1-.43-.38,2.54,2.54,0,0,1-.34-.55,3.5,3.5,0,0,1-.24-.69,4,4,0,0,1-.08-.78,2.73,2.73,0,0,1,.08-.69,1.06,1.06,0,0,1,.24-.42.49.49,0,0,1,.35-.15.77.77,0,0,1,.44.12,1.68,1.68,0,0,1,.43.38,2.44,2.44,0,0,1,.36.56,3.59,3.59,0,0,1,.23.7,3.33,3.33,0,0,1,.09.78,2.17,2.17,0,0,1,0,.38,2.05,2.05,0,0,1-.07.31,1.45,1.45,0,0,1-.1.25c0,.08-.07.15-.1.22l-.78,1.53-.05.07s0,0-.08,0l-.37-.21a.16.16,0,0,1-.08-.11A.29.29,0,0,1,452.52,93.29Zm0-3.23a1.66,1.66,0,0,0,.16.72,1,1,0,0,0,.39.44.31.31,0,0,0,.39,0,.71.71,0,0,0,.15-.54,1.69,1.69,0,0,0-.15-.72,1,1,0,0,0-.39-.44c-.16-.1-.29-.1-.39,0A.77.77,0,0,0,452.56,90.06Z" style="fill:#A11818"></path><path d="M455,94.74a.07.07,0,0,1,0,0s0,0,0,0l.55-1.08a1.53,1.53,0,0,1-.43-.38,2.58,2.58,0,0,1-.35-.55,4.1,4.1,0,0,1-.23-.7,3.94,3.94,0,0,1-.08-.77,2.73,2.73,0,0,1,.08-.69,1,1,0,0,1,.24-.42.52.52,0,0,1,.35-.16.88.88,0,0,1,.44.13,1.51,1.51,0,0,1,.43.38,2.12,2.12,0,0,1,.35.56,3.27,3.27,0,0,1,.32,1.48,2.24,2.24,0,0,1,0,.38,2.38,2.38,0,0,1-.07.31,1.86,1.86,0,0,1-.1.25c0,.08-.07.15-.1.22l-.78,1.53,0,.07s0,0-.08,0l-.38-.21a.35.35,0,0,1-.08-.11A.41.41,0,0,1,455,94.74Zm0-3.24a1.47,1.47,0,0,0,.16.72,1,1,0,0,0,.39.45.31.31,0,0,0,.39,0,.73.73,0,0,0,.15-.54,1.66,1.66,0,0,0-.15-.72,1.1,1.1,0,0,0-.39-.45.31.31,0,0,0-.39,0A.68.68,0,0,0,455.07,91.5Z" style="fill:#A11818"></path><path d="M460,128.8a4.52,4.52,0,0,1-2.23-.67L375.11,80.38A9.19,9.19,0,0,1,373,78.56h0a13.12,13.12,0,0,1-1.4-2,10.55,10.55,0,0,1-1.54-5.11V34.09a3.2,3.2,0,0,1,5.2-3l82.53,47.65a11.73,11.73,0,0,1,5.2,9v37.39a3.62,3.62,0,0,1-1.56,3.32A2.86,2.86,0,0,1,460,128.8Zm-84.1-49.09,82.37,47.55a2.24,2.24,0,0,0,3.71-2.14V87.73a10.73,10.73,0,0,0-4.7-8.14L374.78,32a2.23,2.23,0,0,0-3.7,2.14V71.48a9.59,9.59,0,0,0,1.41,4.61,11.5,11.5,0,0,0,1.28,1.81h0a8.53,8.53,0,0,0,1.55,1.43l.43-.15Z" style="fill:#A11818"></path></g></g><g id="freepik--Icons--inject-99"><g id="freepik--Ghost--inject-99"><path d="M66.86,139.47c.17,3.41-2.46,5-4.72,5.49a10.57,10.57,0,0,0-14.2,0c-2.26-.5-4.88-2.08-4.72-5.49a7.37,7.37,0,0,0,1.57,10.65l0,0a10.59,10.59,0,1,0,20.46,0l0,0A7.37,7.37,0,0,0,66.86,139.47Z" style="fill:#e0e0e0"></path><path d="M51.29,153.42a1.91,1.91,0,1,1-1.91-1.91A1.91,1.91,0,0,1,51.29,153.42Z" style="fill:#fff"></path><path d="M58.79,153.42a1.91,1.91,0,1,0,1.91-1.91A1.91,1.91,0,0,0,58.79,153.42Z" style="fill:#fff"></path><path d="M55.22,158.58a4.2,4.2,0,0,1-2.65-1.05.42.42,0,0,1-.06-.6.43.43,0,0,1,.6-.07,3,3,0,0,0,4.22,0,.43.43,0,0,1,.6.07.42.42,0,0,1-.07.6A4.18,4.18,0,0,1,55.22,158.58Z" style="fill:#fff"></path></g><g id="freepik--ghost--inject-99"><path d="M328.94,27.83c.13,2.69-1.95,3.94-3.73,4.33a8.35,8.35,0,0,0-11.21,0c-1.79-.39-3.86-1.64-3.73-4.33a5.82,5.82,0,0,0,1.24,8.4h0a8.37,8.37,0,1,0,16.16,0h0A5.81,5.81,0,0,0,328.94,27.83Z" style="fill:#e0e0e0"></path><path d="M316.64,38.85a1.51,1.51,0,1,1-1.51-1.51A1.51,1.51,0,0,1,316.64,38.85Z" style="fill:#fff"></path><path d="M322.56,38.85a1.51,1.51,0,1,0,1.51-1.51A1.52,1.52,0,0,0,322.56,38.85Z" style="fill:#fff"></path><path d="M319.74,42.92a3.34,3.34,0,0,1-2.09-.83.34.34,0,0,1,0-.48.36.36,0,0,1,.48,0,2.37,2.37,0,0,0,3.33,0,.34.34,0,0,1,.47,0,.34.34,0,0,1-.05.48A3.34,3.34,0,0,1,319.74,42.92Z" style="fill:#fff"></path></g><g id="freepik--ghost--inject-99"><path d="M70.28,320c.11,2.46-1.78,3.61-3.42,4a7.64,7.64,0,0,0-10.26,0c-1.63-.35-3.53-1.5-3.41-4a5.32,5.32,0,0,0,1.14,7.69h0a7.42,7.42,0,0,0-.26,2,7.66,7.66,0,0,0,15.31,0,7.86,7.86,0,0,0-.26-2h0A5.33,5.33,0,0,0,70.28,320Z" style="fill:#e0e0e0"></path><path d="M59,330.07a1.38,1.38,0,1,1-1.38-1.38A1.38,1.38,0,0,1,59,330.07Z" style="fill:#fff"></path><path d="M64.44,330.07a1.39,1.39,0,1,0,1.38-1.38A1.38,1.38,0,0,0,64.44,330.07Z" style="fill:#fff"></path><path d="M61.86,333.8A3,3,0,0,1,60,333a.31.31,0,0,1-.05-.44.3.3,0,0,1,.43,0,2.18,2.18,0,0,0,3.05,0,.31.31,0,0,1,.44,0,.31.31,0,0,1,0,.44A3,3,0,0,1,61.86,333.8Z" style="fill:#fff"></path></g><path id="freepik--Cherry--inject-99" d="M88.29,259a3.91,3.91,0,0,0-1.53.31,14.19,14.19,0,0,1-1.39-7.17,9.29,9.29,0,0,1,4,1.13.71.71,0,0,0,.39.12.68.68,0,0,0,.57-.31.69.69,0,0,0-.18-1A11.38,11.38,0,0,0,85,250.68h0a.61.61,0,0,0-.42,0,12.42,12.42,0,0,0-6,.94.69.69,0,0,0,.63,1.23,10.08,10.08,0,0,1,4.17-.82,30.53,30.53,0,0,0-4.26,10.75,4,4,0,1,0,1.37.14A29.53,29.53,0,0,1,84,253.65,15.71,15.71,0,0,0,85.58,260,4,4,0,1,0,88.29,259Z" style="fill:#e0e0e0"></path><path id="freepik--cherry--inject-99" d="M179,69.23a5,5,0,0,0-1.89.38,17.69,17.69,0,0,1-1.71-8.84,11.64,11.64,0,0,1,4.89,1.39.82.82,0,0,0,.47.15.85.85,0,0,0,.48-1.56A14.2,14.2,0,0,0,174.91,59h0a.89.89,0,0,0-.51,0A15.41,15.41,0,0,0,167,60.16a.86.86,0,0,0-.37,1.15.85.85,0,0,0,1.14.37,12.3,12.3,0,0,1,5.15-1,37.32,37.32,0,0,0-5.25,13.24,4.91,4.91,0,1,0,1.69.17,36.14,36.14,0,0,1,4.27-11.38,19.64,19.64,0,0,0,2,7.83,4.95,4.95,0,1,0,3.34-1.3Z" style="fill:#e0e0e0"></path></g><g id="freepik--Character--inject-99"><g id="freepik--character--inject-99"><g id="freepik--Bottom--inject-99"><path d="M167.52,420.43c-2.64-2.41-4.89-3.5-5.52-1.95s-.32,6.29-.32,6.29l1,4.44-.26,3.86s.68,2.42.71,2.59,3.66-5.94,3.66-5.94S171.3,423,167.52,420.43Z"></path><path d="M93.59,406.06s20.47-25.8,31.1-41.37c7.86-11.51,8.67-13.8,11-21.55,5-16.66,6.12-20.57,6.12-20.57l2.78,34.64c-1.16,3.65-3.49,10.87-3.89,15.19-.54,5.74-.63,13.87.14,25.38A261.57,261.57,0,0,0,144,426.15c1.29,1,5.23,1.52,8.67,1.68a41.25,41.25,0,0,0,10-1s6-40.09,7.52-51.13c1.84-13.26,2.52-18.46,3.52-25.74,1.58-11.58,4.51-28.31,5.71-49.74,2.39-42.61-5.79-62.78-5.79-62.78L125,226.91c-5.19,14-13.79,15-16.2,34.52-.55,4.42,1.16,13.42.71,20.32-1.48,22.38-2.16,57.65-2.16,57.65-5.78,4.44-10.07,8.53-14.67,19.51-2.8,6.67-11.61,27.94-14.2,33.9C85.79,395.48,93.59,406.06,93.59,406.06Z" style="fill:#ffbda7"></path><path d="M107.46,302c10.4,5.16,21.33,9.44,33.63,10.55l.12,1.68s1.43.46,10.27,1.26,20.18,0,27.45-2c.38-4.17.68-8.81.94-13.41,2.39-42.62-6.3-62.66-6.3-62.66L125,226.91c-5.19,14-14.17,14.62-16.58,34.12-.55,4.43.93,13.44.47,20.34C108.43,287.8,108.15,294.34,107.46,302Z" style="fill:#455a64"></path><path d="M155.69,260.68l-1.28-.3c-1.75,7.62-4.31,16.22-5.4,16.83-1.89,1.06-8.66,1.52-10.13,1s-2.71-1.78-5.1-5.53c-1.67-2.63-1.35-4.17-.65-7.53.26-1.26.56-2.69.82-4.49l-1.3-.19c-.26,1.76-.55,3.17-.81,4.41-.71,3.38-1.14,5.42.83,8.51,2.59,4.05,3.94,5.47,5.81,6.08a4.36,4.36,0,0,0,.83.16c2.64.33,8.46-.25,10.34-1.3C151.77,277.19,154.81,264.53,155.69,260.68Z" style="fill:#37474f"></path><path d="M168.92,315.26c.23-7.61.19-16.26-.23-24.12,7.92-3.19,9.39-16.78,6.5-31.1l-1.3.26c2.7,13.35,1.67,26.32-5.27,29.44a280.27,280.27,0,0,0-3.13-28.1l-1.3.2a280.89,280.89,0,0,1,3.4,53.55Z" style="fill:#37474f"></path><path d="M108.46,267.29a10,10,0,0,0,3.14,2.28h0c2.07.25,5.73-2.37,6.87-4.47a14.15,14.15,0,0,0,1.14-3.88,33.52,33.52,0,0,1,1.55-5.76L120,255a36.07,36.07,0,0,0-1.62,6,13.34,13.34,0,0,1-1,3.52c-1,1.78-4.16,4-5.54,3.79h0a14.14,14.14,0,0,1-3.46-3.2C108.36,265.73,108.41,266.63,108.46,267.29Z" style="fill:#37474f"></path><path d="M129.29,310.48c.43.09.84.22,1.27.31,1.52-9.12,2.83-18.33,3.42-25.17l-1.32-.12C132.08,292.3,130.8,301.42,129.29,310.48Z" style="fill:#37474f"></path><path d="M128,253.39c-3.73,4.92-6.47,13.85-2.94,24.16l1.25-.42c-3.36-9.82-.79-18.29,2.74-22.95Z" style="fill:#37474f"></path><path d="M134.61,288.84l2.95,23.29c1.15.15,2.64.32,3.53.41l-1.85-26.25s-13.66-3-14.59-15.78C123.74,278,126.3,284.7,134.61,288.84Z" style="fill:#37474f"></path><path d="M192.62,450c.83,0,.51,3,.17,4s-3.88,4.16-9.91,5-15-1-18.54-1.39-7.06,1.07-12,1.38c-4.42.29-10.27-1.19-12.21-3.28a4,4,0,0,1-.65-3.32c.2-2.27.44-2.71.71-2.68Z" style="fill:#263238"></path><path d="M140.4,444.62a19.32,19.32,0,0,0-.49,6.65c.64,1.74,2.86,2.81,4.42,3.37,4.11,1.48,7.31,1.43,12,.8a36.31,36.31,0,0,1,9.15-.4c3.63.42,8.62,1.33,12.27,1.18a30.51,30.51,0,0,0,9.14-1.35c2.48-.9,4.91-2.09,5.72-4.47.43-4.41-1.77-6.66-4.21-8.2s-6-1.9-9.07-2.35c-3.75-.56-5.19-.41-8.94-1.68-2-.66-4.88,0-5.66-2.32-.93-2.69.33-7.57.12-10.35a1.63,1.63,0,0,0-.48-1.23c-.53-.39-1.27,0-1.84.28a19.07,19.07,0,0,1-8.58,2.26c-8.26.45-10.28-2.6-10.28-2.6l-.28-1.73s-1.81.17-1.44,4.07a53.88,53.88,0,0,1,.19,9.73C141.9,440.49,141,442.44,140.4,444.62Z" style="fill:#37474f"></path><path d="M177.9,439.66c2.79,1.52,1.58,6.56,1.58,6.56a27.17,27.17,0,0,1-9.55-.86c-5.31-1.76-7.32-5.6-6.87-10.05s3.93-9.47,4.91-11.15a2.79,2.79,0,0,0-.45-3.73c2.43,1.89,2.41,3.7,1.41,5.76s-2.73,6.28-2.39,8.07S171,438.56,177.9,439.66Z" style="fill:#263238"></path><path d="M94.26,404.38c1.33,2.51,2.94,4.37-2.06,6.82-3.85,1.88-4.31,3.75-5.74,6.1s-1.86,7.44-1.86,7.44-4.89-10-2.34-15.72S94.26,404.38,94.26,404.38Z" style="fill:#263238"></path><path d="M75.34,396.57c-1.35,1.51-4.19,2.58-6.56,3.66-1.67.75-3.38,1.49-4.07,3.19-.07.19.74,1.41.69,1.61a10.85,10.85,0,0,0-.24,2.61c0,3,1.31,5.46,1.28,8.5a20.66,20.66,0,0,0,.19,3.61,21.52,21.52,0,0,1-.21,4.31c-.1,1.5-.2,3-.31,4.51a7.8,7.8,0,0,1-.18,1.93c-.21.61,9.27,7,13.11,9.53.22.15.45.27.7.41,3.55,1.72,7.56.24,7.56.24,8.54-1.9,8.42-4.92,8.42-4.92s.69-3.38-3.14-6.21a10.19,10.19,0,0,0-1.47-.92l-.07-.05a10.66,10.66,0,0,0-6.29-1.14,10.84,10.84,0,0,1-.07-3.83,41,41,0,0,1,.65-5.75,15,15,0,0,1,3.24-5.7c2-2.17,4.31-5,5.71-6.5,1.51-1.32,2.2-5.52-4-11.26-5.9-5.5-10.8-5.15-12-3.33A26.29,26.29,0,0,1,75.34,396.57Z" style="fill:#37474f"></path><path d="M88.68,431a6.22,6.22,0,0,0-2.46-3.6,8.32,8.32,0,0,0-1.47.08C85.46,428.35,88.26,429.88,88.68,431Z" style="fill:#263238"></path><path d="M63.5,405c-1.91.53-.64,5.7.11,10.56s1.24,6.56.29,10.46-1.44,5.64.09,7.23S78.21,442,78.21,442a45.8,45.8,0,0,1-1.63-15.1c.43-8.79.32-14.48-3.51-18.83S63.5,405,63.5,405Z" style="fill:#A11818"></path><path d="M63.5,405c-1.91.53-.64,5.7.11,10.56s1.24,6.56.29,10.46-1.44,5.64.09,7.23S78.21,442,78.21,442a45.8,45.8,0,0,1-1.63-15.1c.43-8.79.32-14.48-3.51-18.83S63.5,405,63.5,405Z" style="opacity:0.4"></path><path d="M95.72,435.75c-.43,1.67-5.73,4.49-11.45,3.69-5.9-.83-6-2.1-6.07-8.93s.58-16.22-1.81-20.59-5.9-7.23-11.68-6.5c-.67.23-2.63,1.73-2.19,3.43,0,0,.15-1.28,2.53-1.64,2-.32,4.38.05,7.29,3.3,3.39,3.8,3.24,11.65,2.82,18.37s-.82,14.5,4.62,15.81,11.48-.46,15.39-3.09A8,8,0,0,0,95.72,435.75Z" style="fill:#263238"></path><polygon points="141.79 322.57 141.09 312.54 137.56 312.13 139.02 322.67 134.63 346.51 141.79 322.57" style="fill:#f0997a"></polygon></g><g id="freepik--Top--inject-99"><g id="freepik--top--inject-99"><path d="M134,172.68c-8.35-.76-12.17,1.12-16.89,7.94s-14.89,35.91-16.53,42.49-.91,9,5.56,12.86,23.56,10.1,23.56,10.1l9.51-12.16-16.61-11.08,5.9-18.06Z" style="fill:#f0997a"></path><path d="M128.9,130.52c0,.11-.05.22-.08.33a9.63,9.63,0,0,1-1,3.54c-.8,1.16-2.21,1.7-3.31,2.58a6.52,6.52,0,0,0-2.14,6.75c.3,1,.86,2,1.18,3a3.39,3.39,0,0,1-.32,3.09c-.71.91-2,1.11-3,1.56s-2.08,1.65-1.54,2.67c.79-1.41,2.79-1.48,4.38-1.18s3.38.75,4.73-.15c-1.13,1.29-2.69,2.18-3.77,3.51s-1.56,3.48-.35,4.7a3.24,3.24,0,0,1,3.94.25,9.57,9.57,0,0,1,2.4,3.48,9.54,9.54,0,0,0,2.39,3.48c3.06,2.4,7.85.4,11.25,2.28,1.7.95,2.86,2.45,4.83,1.67s3.84.59,5.89.43c1.62-.13,3-1.41,4.65-1.7,2.2-.39,4.54.7,6.63,0s3.31-3.07,5.43-3.62c1.52-.39,3.1.25,4.66.42a8.09,8.09,0,0,0,5.48-1.39c1.46-1,2.58-2.53,4.18-3.34s4-.48,4.53,1.24c.48-2.22.81-4.73-.44-6.62-1.14-1.71-3.45-2.71-3.8-4.74s1.66-3.84,2.58-5.81a6.18,6.18,0,0,0-2.55-7.76,5.59,5.59,0,0,0,7.8-2.09c-1.26,1.44-3.78,1.07-5.08-.34a7.47,7.47,0,0,1-1.51-5.39,50,50,0,0,0,.32-5.73,10.46,10.46,0,0,0-5.56-8.23c-3.72-2-7.87-1.11-11.79-2.44-2.15-.73-4.11-1.92-6.22-2.75a18.13,18.13,0,0,0-13.49,0,15.76,15.76,0,0,0-9,9.86A11.67,11.67,0,0,0,128.9,130.52Z" style="fill:#263238"></path><path d="M139.38,173.53c2-10.36.74-10.8.64-12.28-.23-3.69-6.21-8.95-4.92-18.88,1.89-14.59,11.88-22,25.85-20.88,8.69.7,16.53,4.47,19,13.36,1.5,5.42-.52,8.45.3,11.46,1,3.5,3.26,8-1.69,19a10,10,0,0,1-8.16,6.08,28,28,0,0,1-7.52-.13s-.51,4.05-.72,6.68a3.71,3.71,0,0,0,2.69,4.07C160,184.88,139.39,180.67,139.38,173.53Z" style="fill:#ffbda7"></path><path d="M171.05,160.2a3.62,3.62,0,0,1-4.65,2.08,3.57,3.57,0,0,1-2.11-4.6Z" style="fill:#b16668"></path><path d="M168.15,162.46a5.09,5.09,0,0,0-4.07-3.59,3.57,3.57,0,0,0,2.32,3.41A3.64,3.64,0,0,0,168.15,162.46Z" style="fill:#f28f8f"></path><path d="M164.1,146.7a2,2,0,0,1-1.46,2.4,2,2,0,0,1-2.38-1.54,2,2,0,0,1,1.46-2.4A2,2,0,0,1,164.1,146.7Z" style="fill:#263238"></path><path d="M163.13,139.7l-4.35,2a2.48,2.48,0,0,1,1.19-3.24A2.36,2.36,0,0,1,163.13,139.7Z" style="fill:#263238"></path><path d="M179.52,143.2l-4.36-2.1a2.33,2.33,0,0,1,3.16-1.16A2.51,2.51,0,0,1,179.52,143.2Z" style="fill:#263238"></path><path d="M178.25,147.3a1.82,1.82,0,0,1-2,1.69,1.86,1.86,0,1,1,2-1.69Z" style="fill:#263238"></path><polygon points="176.85 152.75 170.46 155.93 169.05 143.83 176.85 152.75" style="fill:#f0997a"></polygon><path d="M162.87,171.32a37.44,37.44,0,0,1-7.53-3.09,14.14,14.14,0,0,1-6.86-8.48c.44,3.49,1.18,7.43,5.74,10.29a36.3,36.3,0,0,0,8.36,3.85Z" style="fill:#f0997a"></path><path d="M121.18,185.88c1.9-6.09,7.29-13.31,12.8-13.2a16.42,16.42,0,0,1,5.4.78s.41,2.37,8.4,4.68a21.65,21.65,0,0,0,14.34-.56l10.56,6c3,2.58,9.71,7.27,13.17,16.21,3,7.76,2.33,16.55-7.25,21.84-.3,4.8-.32,6.38-.6,10.64,1.71,11.3,1.39,18.55,1.34,29.77-7.71,7.73-64.79,6.09-67.43-15.25,6.13-12.3,10.12-21.24,10-25.49C121.51,211.53,116.22,201.83,121.18,185.88Z" style="fill:#A11818"></path><path d="M146,148.11c-1.6-2.61-5.47-2.28-7.48-.36s-1.81,7.82,2.26,10.59a5.1,5.1,0,0,0,3.07,1,3.34,3.34,0,0,0,2.45-1.3,9.7,9.7,0,0,1,1.08,4.29c0,1.22-.14,2.44-.07,3.65a5.7,5.7,0,0,0,1.16,3.4,3.8,3.8,0,0,0,1.69,1.18,3,3,0,0,1-1.62.47,11.17,11.17,0,0,1-3.82-.41c-.58-.17-1.14-.38-1.72-.55a23.31,23.31,0,0,0-3.62-.57c-.7-.05-2.33-1.38-2.1-6,.08-1.49,1.23-4.68,0-5.84a4.68,4.68,0,0,1-1.25-2.11,36.2,36.2,0,0,1-1.45-5.71c-.85-4.88-1-10.19.85-14.87a16,16,0,0,1,2.24-4,15.3,15.3,0,0,1,1.6-1.72,24,24,0,0,0,2-1.48c-.32-3.49,11-10.54,18.65-10.21,21,.89,24,11.63,22.69,20.62,0,0-15,1.73-24.31-8.68.49,3.48-.52,11.32-7.57,14.79,0,0,1.54,5.22-1.25,6.73C147.84,152,146,148.11,146,148.11Z" style="fill:#263238"></path></g></g><path d="M172.68,183.63c-5.84-3.29-12.81,5.13-14.41,12.45-1,4.48-.53,11,.76,18.44.9,5.11,6,28.88,8.14,35.52,1.41,4.32,2.27,6.27,10.48,8.37,9.21,2.35,27.76,5.29,35.83,4.88a24.73,24.73,0,0,0,8.15-1.37c2.43-1,3.71-2.61,5.54-4.39a11.31,11.31,0,0,1,2.48-1.66c2.18-1.19,4.5-2.9,6.87-3.66,2.09-.68,4.44.32,6.45-.68.32-.16.64-.42.64-.77s-.27-.56-.51-.76c-1.78-1.44-3.91-2.27-5.71-3.62a12.91,12.91,0,0,0-1.68-1.39,6.3,6.3,0,0,0-2.12-.42c-1.7-.2-3.1-1.41-4.7-1.54a15.35,15.35,0,0,0-5.42.78c-8.31,2.51-9.84,5.94-15.88,4.48s-20.37-8.58-20.37-8.58-5.35-34.33-6.24-40.42C179.67,190.34,177.39,186.28,172.68,183.63Z" style="fill:#ffbda7"></path></g></g><g id="freepik--speech-bubble--inject-99"><g id="freepik--speech-bubble--inject-99"><g id="freepik--speech-bubble--inject-99"><path d="M72.13,52.49a36.27,36.27,0,0,0,46.53,55.33L129,112.39a2.1,2.1,0,0,0,2.79-2.76L127.22,99.3A36.27,36.27,0,0,0,72.13,52.49Zm49.29,2.13a33.32,33.32,0,0,1,9.7,22.56L131,81a33.41,33.41,0,0,1-66.61-.17L64.31,77a33.42,33.42,0,0,1,57.11-22.39Z" style="fill:#455a64"></path><path d="M121.42,54.62a33.32,33.32,0,0,1,9.7,22.56L131,81a33.41,33.41,0,0,1-66.61-.17L64.31,77a33.42,33.42,0,0,1,57.11-22.39Z" style="fill:#fff"></path></g><g id="freepik--8-bit-heart--inject-99"><polygon points="91.87 67.57 84.07 67.57 84.07 71.47 80.17 71.47 80.17 79.26 84.07 79.26 84.07 83.16 87.97 83.16 87.97 87.06 91.87 87.06 91.87 90.96 95.77 90.96 95.77 94.86 99.66 94.86 99.66 90.96 103.56 90.96 103.56 87.06 107.46 87.06 107.46 83.16 111.36 83.16 111.36 79.26 115.26 79.26 115.26 71.47 111.36 71.47 111.36 67.57 103.56 67.57 103.56 71.47 99.66 71.47 99.66 75.36 95.77 75.36 95.77 71.47 91.87 71.47 91.87 67.57" style="fill:#A11818"></polygon><rect x="84.07" y="63.67" width="3.9" height="3.9" style="fill:#455a64"></rect><rect x="87.97" y="63.67" width="3.9" height="3.9" style="fill:#455a64"></rect><rect x="80.17" y="67.57" width="3.9" height="3.9" style="fill:#455a64"></rect><rect x="84.07" y="71.47" width="3.9" height="3.9" style="fill:#fafafa"></rect><rect x="84.07" y="75.37" width="3.9" height="3.9" style="fill:#fafafa"></rect><rect x="87.97" y="71.47" width="3.9" height="3.9" style="fill:#fafafa"></rect><rect x="80.17" y="79.26" width="3.9" height="3.9" style="fill:#455a64"></rect><rect x="84.07" y="83.16" width="3.9" height="3.9" style="fill:#455a64"></rect><rect x="87.97" y="87.06" width="3.9" height="3.9" style="fill:#455a64"></rect><rect x="91.87" y="90.96" width="3.9" height="3.9" style="fill:#455a64"></rect><rect x="95.77" y="94.86" width="3.9" height="3.9" style="fill:#455a64"></rect><rect x="76.27" y="71.47" width="3.9" height="3.9" style="fill:#455a64"></rect><rect x="76.27" y="75.37" width="3.9" height="3.9" style="fill:#455a64"></rect><rect x="91.87" y="67.57" width="3.9" height="3.9" style="fill:#455a64"></rect><rect x="107.46" y="63.67" width="3.9" height="3.9" style="fill:#455a64"></rect><rect x="103.56" y="63.67" width="3.9" height="3.9" style="fill:#455a64"></rect><rect x="111.36" y="67.57" width="3.9" height="3.9" style="fill:#455a64"></rect><rect x="111.36" y="79.26" width="3.9" height="3.9" style="fill:#455a64"></rect><rect x="107.46" y="83.16" width="3.9" height="3.9" style="fill:#455a64"></rect><rect x="103.56" y="87.06" width="3.9" height="3.9" style="fill:#455a64"></rect><rect x="99.66" y="90.96" width="3.9" height="3.9" style="fill:#455a64"></rect><rect x="115.26" y="71.47" width="3.9" height="3.9" style="fill:#455a64"></rect><rect x="115.26" y="75.37" width="3.9" height="3.9" style="fill:#455a64"></rect><rect x="99.66" y="67.57" width="3.9" height="3.9" style="fill:#455a64"></rect><rect x="95.77" y="71.47" width="3.9" height="3.9" style="fill:#455a64"></rect></g></g></g></svg>