<svg width="44" height="49" viewBox="0 0 44 49" fill="none" xmlns="http://www.w3.org/2000/svg">
<path d="M29.2831 38.7879C29.2831 38.9871 29.4871 39.1465 29.7444 39.1465C30.0371 39.1764 30.2411 39.017 30.2411 38.7879C30.2411 38.5887 30.0371 38.4293 29.7798 38.4293C29.5137 38.3994 29.2831 38.5588 29.2831 38.7879ZM32.0419 38.3396C32.104 38.5389 31.9266 38.768 31.6605 38.8277C31.4298 38.9273 31.1637 38.8277 31.1105 38.6285C31.0573 38.4293 31.2258 38.2002 31.4919 38.1105C31.7226 38.0408 31.9798 38.1404 32.0419 38.3396ZM28.121 38.1703C28.3782 38.24 28.5556 38.4293 28.529 38.6584C28.5024 38.8576 28.2718 38.9871 28.0056 38.9174C27.7484 38.8477 27.571 38.6584 27.5976 38.4592C27.6242 38.2699 27.8637 38.1404 28.121 38.1703ZM22.2839 0C34.5879 0 44 10.4889 44 24.3047C44 35.3514 37.8081 44.8043 28.9637 48.1313C27.8282 48.3604 27.429 47.5734 27.429 46.926C27.429 46.3084 27.4556 42.9018 27.4556 40.81C27.4556 40.81 33.6653 42.3041 34.9694 37.8416C34.9694 37.8416 35.9806 34.943 37.4355 34.1959C37.4355 34.1959 39.4669 32.632 37.2935 32.6619C37.2935 32.6619 35.0847 32.8611 33.8694 35.2318C31.9266 39.0768 28.671 37.9711 27.4024 37.3137C27.1984 35.7199 26.6218 34.6143 25.9831 33.9568C30.9419 33.3393 35.9452 32.5324 35.9452 22.95C35.9452 20.2107 35.271 18.8361 33.8516 17.083C34.0823 16.4355 34.8363 13.766 33.621 10.3195C31.7669 9.67207 27.5 13.009 27.5 13.009C25.7258 12.4512 23.8185 12.1623 21.929 12.1623C20.0395 12.1623 18.1323 12.4512 16.3581 13.009C16.3581 13.009 12.0911 9.66211 10.2371 10.3195C9.02177 13.776 9.77581 16.4355 10.0065 17.083C8.5871 18.8461 7.71774 20.2207 7.71774 22.95C7.71774 32.5623 12.9427 33.3293 17.9016 33.9568C17.0855 34.7437 16.3935 36.2379 16.3935 38.5787C16.3935 41.9355 16.4202 46.0893 16.4202 46.9061C16.4202 47.5535 16.0121 48.3404 14.8855 48.1113C6.01451 44.8043 0 35.3514 0 24.3047C0 10.4889 9.97984 0 22.2839 0ZM35.3774 34.3553C35.4927 34.4549 35.4661 34.684 35.3153 34.8732C35.1734 35.0326 34.9694 35.1023 34.854 34.9729C34.7387 34.8732 34.7653 34.6441 34.9161 34.4549C35.0581 34.2955 35.2621 34.2258 35.3774 34.3553ZM36.3355 33.5484C36.3976 33.6779 36.3089 33.8373 36.1315 33.9369C35.9895 34.0365 35.8121 34.0066 35.75 33.8672C35.6879 33.7377 35.7766 33.5783 35.954 33.4787C36.1315 33.4189 36.2734 33.4488 36.3355 33.5484ZM33.4613 37.0945C33.6032 37.224 33.55 37.5229 33.346 37.7121C33.1419 37.9412 32.8847 37.9711 32.7694 37.8117C32.654 37.6822 32.7073 37.3834 32.8847 37.1941C33.0798 36.965 33.346 36.9352 33.4613 37.0945ZM34.4726 35.6303C34.6145 35.7299 34.6145 35.9889 34.4726 36.218C34.3306 36.4471 34.0911 36.5467 33.9758 36.4471C33.8339 36.3176 33.8339 36.0586 33.9758 35.8295C34.1 35.6004 34.3306 35.5008 34.4726 35.6303Z" fill="black"/>
</svg>
