<svg width="45" height="40" viewBox="0 0 45 40" fill="none" xmlns="http://www.w3.org/2000/svg">
<path d="M0 3.75C0 1.95539 1.4394 0.5 3.21429 0.5H41.7857C43.5636 0.5 45 1.95539 45 3.75C45 5.54766 43.5636 7 41.7857 7H3.21429C1.4394 7 0 5.54766 0 3.75ZM0 20C0 18.2023 1.4394 16.75 3.21429 16.75H41.7857C43.5636 16.75 45 18.2023 45 20C45 21.7977 43.5636 23.25 41.7857 23.25H3.21429C1.4394 23.25 0 21.7977 0 20ZM41.7857 39.5H3.21429C1.4394 39.5 0 38.0477 0 36.25C0 34.4523 1.4394 33 3.21429 33H41.7857C43.5636 33 45 34.4523 45 36.25C45 38.0477 43.5636 39.5 41.7857 39.5Z" fill="black"/>
</svg>
