<svg width="44" height="50" viewBox="0 0 44 50" fill="none" xmlns="http://www.w3.org/2000/svg">
<path d="M41.9875 12.1175C41.5077 9.80791 40.0941 7.98896 38.2992 7.37168C35.0457 6.25 22 6.25 22 6.25C22 6.25 8.95428 6.25 5.7008 7.37168C3.90589 7.98906 2.49224 9.80791 2.01244 12.1175C1.14069 16.3037 1.14069 25.0379 1.14069 25.0379C1.14069 25.0379 1.14069 33.7721 2.01244 37.9583C2.49224 40.2679 3.90589 42.011 5.7008 42.6283C8.95428 43.75 22 43.75 22 43.75C22 43.75 35.0457 43.75 38.2992 42.6283C40.0941 42.011 41.5077 40.2679 41.9875 37.9583C42.8593 33.7721 42.8593 25.0379 42.8593 25.0379C42.8593 25.0379 42.8593 16.3037 41.9875 12.1175ZM17.7333 32.9679V17.1079L28.6369 25.0381L17.7333 32.9679Z" fill="black"/>
</svg>
